<svg width="550" height="450" xmlns="http://www.w3.org/2000/svg" xmlns:xlink="http://www.w3.org/1999/xlink">
<!-- Inline SVG data display produced by minplot -->
<polyline points="50,350 500,350" stroke="#e0e0e0"  />
<polyline points="500,350 50,350" stroke="#e0e0e0"  />
<polyline points="50,350 50,358" stroke="#e0e0e0"  />
<polyline points="95,350 95,358" stroke="#e0e0e0"  />
<polyline points="140,350 140,358" stroke="#e0e0e0"  />
<polyline points="185,350 185,358" stroke="#e0e0e0"  />
<polyline points="230,350 230,358" stroke="#e0e0e0"  />
<polyline points="275,350 275,358" stroke="#e0e0e0"  />
<polyline points="320,350 320,358" stroke="#e0e0e0"  />
<polyline points="365,350 365,358" stroke="#e0e0e0"  />
<polyline points="410,350 410,358" stroke="#e0e0e0"  />
<polyline points="455,350 455,358" stroke="#e0e0e0"  />
<polyline points="500,350 500,358" stroke="#e0e0e0"  />
<text x="59" y="366" style="font-family: arial, sans-serif" font-size="12pt" fill="#c0a0a0"  text-anchor="start" transform="rotate(45 59,366)" >Ohio</text>
<text x="104" y="366" style="font-family: arial, sans-serif" font-size="12pt" fill="#c0a0a0"  text-anchor="start" transform="rotate(45 104,366)" >Kansas</text>
<text x="149" y="366" style="font-family: arial, sans-serif" font-size="12pt" fill="#c0a0a0"  text-anchor="start" transform="rotate(45 149,366)" >Michigan</text>
<text x="194" y="366" style="font-family: arial, sans-serif" font-size="12pt" fill="#c0a0a0"  text-anchor="start" transform="rotate(45 194,366)" >Oklahoma</text>
<text x="239" y="366" style="font-family: arial, sans-serif" font-size="12pt" fill="#c0a0a0"  text-anchor="start" transform="rotate(45 239,366)" >Mississippi</text>
<text x="284" y="366" style="font-family: arial, sans-serif" font-size="12pt" fill="#c0a0a0"  text-anchor="start" transform="rotate(45 284,366)" >New Mexico</text>
<text x="329" y="366" style="font-family: arial, sans-serif" font-size="12pt" fill="#c0a0a0"  text-anchor="start" transform="rotate(45 329,366)" >Wisconsin</text>
<text x="374" y="366" style="font-family: arial, sans-serif" font-size="12pt" fill="#c0a0a0"  text-anchor="start" transform="rotate(45 374,366)" >South Dakota</text>
<text x="419" y="366" style="font-family: arial, sans-serif" font-size="12pt" fill="#c0a0a0"  text-anchor="start" transform="rotate(45 419,366)" >New Hampshire</text>
<text x="464" y="366" style="font-family: arial, sans-serif" font-size="12pt" fill="#c0a0a0"  text-anchor="start" transform="rotate(45 464,366)" >Georgia</text>
<polyline points="50,350 49,350" stroke="#e0e0e0"  />
<polyline points="50,307.14 49,307.14" stroke="#e0e0e0"  />
<polyline points="50,264.29 49,264.29" stroke="#e0e0e0"  />
<polyline points="50,221.43 49,221.43" stroke="#e0e0e0"  />
<polyline points="50,178.57 49,178.57" stroke="#e0e0e0"  />
<polyline points="50,135.71 49,135.71" stroke="#e0e0e0"  />
<polyline points="50,92.86 49,92.86" stroke="#e0e0e0"  />
<polyline points="50,50 49,50" stroke="#e0e0e0"  />
<polyline points="50,350 500,350" stroke="#e0e0e0"  />
<polyline points="50,307.14 500,307.14" stroke="#e0e0e0"  />
<polyline points="50,264.29 500,264.29" stroke="#e0e0e0"  />
<polyline points="50,221.43 500,221.43" stroke="#e0e0e0"  />
<polyline points="50,178.57 500,178.57" stroke="#e0e0e0"  />
<polyline points="50,135.71 500,135.71" stroke="#e0e0e0"  />
<polyline points="50,92.86 500,92.86" stroke="#e0e0e0"  />
<polyline points="50,50 500,50" stroke="#e0e0e0"  />
<text x="47" y="355" style="font-family: arial, sans-serif" font-size="12pt" fill="#c0a0a0"  text-anchor="end" >0</text>
<text x="47" y="312.14" style="font-family: arial, sans-serif" font-size="12pt" fill="#c0a0a0"  text-anchor="end" >20</text>
<text x="47" y="269.29" style="font-family: arial, sans-serif" font-size="12pt" fill="#c0a0a0"  text-anchor="end" >40</text>
<text x="47" y="226.43" style="font-family: arial, sans-serif" font-size="12pt" fill="#c0a0a0"  text-anchor="end" >60</text>
<text x="47" y="183.57" style="font-family: arial, sans-serif" font-size="12pt" fill="#c0a0a0"  text-anchor="end" >80</text>
<text x="47" y="140.71" style="font-family: arial, sans-serif" font-size="12pt" fill="#c0a0a0"  text-anchor="end" >100</text>
<text x="47" y="97.86" style="font-family: arial, sans-serif" font-size="12pt" fill="#c0a0a0"  text-anchor="end" >120</text>
<text x="47" y="55" style="font-family: arial, sans-serif" font-size="12pt" fill="#c0a0a0"  text-anchor="end" >140</text>
<polyline points="72.50,324.29 117.50,259.79" stroke="#80d080" stroke-width="2.0" stroke-dasharray="5,2"  />
<polyline points="117.50,259.79 162.50,281" stroke="#80d080" stroke-width="2.0" stroke-dasharray="5,2"  />
<polyline points="162.50,281 207.50,195.07" stroke="#80d080" stroke-width="2.0" stroke-dasharray="5,2"  />
<polyline points="207.50,195.07 252.50,217.14" stroke="#80d080" stroke-width="2.0" stroke-dasharray="5,2"  />
<polyline points="252.50,217.14 297.50,255.71" stroke="#80d080" stroke-width="2.0" stroke-dasharray="5,2"  />
<polyline points="297.50,255.71 342.50,232.14" stroke="#80d080" stroke-width="2.0" stroke-dasharray="5,2"  />
<polyline points="342.50,232.14 387.50,206.86" stroke="#80d080" stroke-width="2.0" stroke-dasharray="5,2"  />
<polyline points="387.50,206.86 432.50,141.07" stroke="#80d080" stroke-width="2.0" stroke-dasharray="5,2"  />
<polyline points="432.50,141.07 477.50,159.29" stroke="#80d080" stroke-width="2.0" stroke-dasharray="5,2"  />
<rect x="62.5" y="324.29" width="20" height="25.71" stroke="#8080ff" stroke-width="0.5"  fill="#fedcba" opacity="0.8"/>
<polyline points="72.50,331.57 72.50,317" stroke="#8080ff" stroke-width="0.5"  />
<polyline points="67.50,331.57 77.50,331.57" stroke="#8080ff" stroke-width="0.5"  />
<polyline points="67.50,317 77.50,317" stroke="#8080ff" stroke-width="0.5"  />
<rect x="107.5" y="259.79" width="20" height="90.21" stroke="#8080ff" stroke-width="0.5"  fill="#fedcba" opacity="0.8"/>
<polyline points="117.50,286.36 117.50,233.21" stroke="#8080ff" stroke-width="0.5"  />
<polyline points="112.50,286.36 122.50,286.36" stroke="#8080ff" stroke-width="0.5"  />
<polyline points="112.50,233.21 122.50,233.21" stroke="#8080ff" stroke-width="0.5"  />
<rect x="152.5" y="281" width="20" height="69" stroke="#8080ff" stroke-width="0.5"  fill="#fedcba" opacity="0.8"/>
<polyline points="162.50,296.64 162.50,265.36" stroke="#8080ff" stroke-width="0.5"  />
<polyline points="157.50,296.64 167.50,296.64" stroke="#8080ff" stroke-width="0.5"  />
<polyline points="157.50,265.36 167.50,265.36" stroke="#8080ff" stroke-width="0.5"  />
<rect x="197.5" y="195.07" width="20" height="154.93" stroke="#8080ff" stroke-width="0.5"  fill="#fedcba" opacity="0.8"/>
<polyline points="207.50,243.07 207.50,147.07" stroke="#8080ff" stroke-width="0.5"  />
<polyline points="202.50,243.07 212.50,243.07" stroke="#8080ff" stroke-width="0.5"  />
<polyline points="202.50,147.07 212.50,147.07" stroke="#8080ff" stroke-width="0.5"  />
<rect x="242.5" y="217.14" width="20" height="132.86" stroke="#8080ff" stroke-width="0.5"  fill="#fedcba" opacity="0.8"/>
<polyline points="252.50,248.86 252.50,185.43" stroke="#8080ff" stroke-width="0.5"  />
<polyline points="247.50,248.86 257.50,248.86" stroke="#8080ff" stroke-width="0.5"  />
<polyline points="247.50,185.43 257.50,185.43" stroke="#8080ff" stroke-width="0.5"  />
<rect x="287.5" y="255.71" width="20" height="94.29" stroke="#8080ff" stroke-width="0.5"  fill="#fedcba" opacity="0.8"/>
<polyline points="297.50,274.57 297.50,236.86" stroke="#8080ff" stroke-width="0.5"  />
<polyline points="292.50,274.57 302.50,274.57" stroke="#8080ff" stroke-width="0.5"  />
<polyline points="292.50,236.86 302.50,236.86" stroke="#8080ff" stroke-width="0.5"  />
<rect x="332.5" y="232.14" width="20" height="117.86" stroke="#8080ff" stroke-width="0.5"  fill="#fedcba" opacity="0.8"/>
<polyline points="342.50,245.43 342.50,218.86" stroke="#8080ff" stroke-width="0.5"  />
<polyline points="337.50,245.43 347.50,245.43" stroke="#8080ff" stroke-width="0.5"  />
<polyline points="337.50,218.86 347.50,218.86" stroke="#8080ff" stroke-width="0.5"  />
<rect x="377.5" y="206.86" width="20" height="143.14" stroke="#8080ff" stroke-width="0.5"  fill="#fedcba" opacity="0.8"/>
<polyline points="387.50,241.79 387.50,171.93" stroke="#8080ff" stroke-width="0.5"  />
<polyline points="382.50,241.79 392.50,241.79" stroke="#8080ff" stroke-width="0.5"  />
<polyline points="382.50,171.93 392.50,171.93" stroke="#8080ff" stroke-width="0.5"  />
<rect x="422.5" y="141.07" width="20" height="208.93" stroke="#8080ff" stroke-width="0.5"  fill="#fedcba" opacity="0.8"/>
<polyline points="432.50,200.64 432.50,81.50" stroke="#8080ff" stroke-width="0.5"  />
<polyline points="427.50,200.64 437.50,200.64" stroke="#8080ff" stroke-width="0.5"  />
<polyline points="427.50,81.50 437.50,81.50" stroke="#8080ff" stroke-width="0.5"  />
<rect x="467.5" y="159.29" width="20" height="190.71" stroke="#8080ff" stroke-width="0.5"  fill="#fedcba" opacity="0.8"/>
<polyline points="477.50,200.43 477.50,118.14" stroke="#8080ff" stroke-width="0.5"  />
<polyline points="472.50,200.43 482.50,200.43" stroke="#8080ff" stroke-width="0.5"  />
<polyline points="472.50,118.14 482.50,118.14" stroke="#8080ff" stroke-width="0.5"  />
<polyline points="55,61.67 75,61.67" stroke="#80d080" stroke-width="2.0" stroke-dasharray="5,2"  />
<text x="80" y="66.67" style="font-family: arial, sans-serif" font-size="12pt" fill="#888"  text-anchor="start" ><tspan>line</tspan><tspan x="80" dy="1.05em">plot</tspan><tspan x="80" dy="1.05em">curve</tspan></text>
<rect x="133.666666667" y="60.67" width="6" height="6" stroke="#aaaaff" stroke-width="0.5"  fill="#fedcba" />
<text x="144.67" y="66.67" style="font-family: arial, sans-serif" font-size="12pt" fill="#888"  text-anchor="start" ><tspan>bar</tspan><tspan x="144.67" dy="1.05em">graph</tspan></text>
</svg>

