<svg width="300" height="300" xmlns="http://www.w3.org/2000/svg" xmlns:xlink="http://www.w3.org/1999/xlink">
<!-- Inline SVG data display produced by minplot -->
<rect x="60.0" y="20" width="220" height="220" stroke="#777"  fill="#eee" />
<text x="60" y="15" font-size="10pt" fill="#777"  text-anchor="start" >Some mixed-sign data</text>
<text x="170" y="280" font-size="10pt" fill="#777"  text-anchor="middle" >var 2</text>
<text x="20" y="130" font-size="10pt" fill="#777"  text-anchor="middle" transform="rotate(-90 20,130)" >var 1</text>
<polyline points="60,108 280,108" stroke="#ccc"  />
<polyline points="206.67,240 206.67,20" stroke="#ccc"  />
<polyline points="60,240 280,240" stroke="#777"  />
<polyline points="280,240 60,240" stroke="#777"  />
<polyline points="60,240 60,248" stroke="#777"  />
<polyline points="84.44,240 84.44,248" stroke="#777"  />
<polyline points="108.89,240 108.89,248" stroke="#777"  />
<polyline points="133.33,240 133.33,248" stroke="#777"  />
<polyline points="157.78,240 157.78,248" stroke="#777"  />
<polyline points="182.22,240 182.22,248" stroke="#777"  />
<polyline points="206.67,240 206.67,248" stroke="#777"  />
<polyline points="231.11,240 231.11,248" stroke="#777"  />
<polyline points="255.56,240 255.56,248" stroke="#777"  />
<polyline points="280,240 280,248" stroke="#777"  />
<text x="60" y="261.89" font-size="10pt" fill="#777"  text-anchor="middle" >-12</text>
<text x="84.44" y="261.89" font-size="10pt" fill="#777"  text-anchor="middle" >-10</text>
<text x="108.89" y="261.89" font-size="10pt" fill="#777"  text-anchor="middle" >-8</text>
<text x="133.33" y="261.89" font-size="10pt" fill="#777"  text-anchor="middle" >-6</text>
<text x="157.78" y="261.89" font-size="10pt" fill="#777"  text-anchor="middle" >-4</text>
<text x="182.22" y="261.89" font-size="10pt" fill="#777"  text-anchor="middle" >-2</text>
<text x="206.67" y="261.89" font-size="10pt" fill="#777"  text-anchor="middle" >0</text>
<text x="231.11" y="261.89" font-size="10pt" fill="#777"  text-anchor="middle" >2</text>
<text x="255.56" y="261.89" font-size="10pt" fill="#777"  text-anchor="middle" >4</text>
<text x="280" y="261.89" font-size="10pt" fill="#777"  text-anchor="middle" >6</text>
<polyline points="60,240 60,20" stroke="#777"  />
<polyline points="60,20 60,240" stroke="#777"  />
<polyline points="60,240 52,240" stroke="#777"  />
<polyline points="60,196 52,196" stroke="#777"  />
<polyline points="60,152 52,152" stroke="#777"  />
<polyline points="60,108 52,108" stroke="#777"  />
<polyline points="60,64 52,64" stroke="#777"  />
<polyline points="60,20 52,20" stroke="#777"  />
<text x="50" y="244.17" font-size="10pt" fill="#777"  text-anchor="end" >-15</text>
<text x="50" y="200.17" font-size="10pt" fill="#777"  text-anchor="end" >-10</text>
<text x="50" y="156.17" font-size="10pt" fill="#777"  text-anchor="end" >-5</text>
<text x="50" y="112.17" font-size="10pt" fill="#777"  text-anchor="end" >0</text>
<text x="50" y="68.17" font-size="10pt" fill="#777"  text-anchor="end" >5</text>
<text x="50" y="24.17" font-size="10pt" fill="#777"  text-anchor="end" >10</text>
<circle cx="231.11" cy="178.40" r="5" fill="#b07070" opacity="0.7"/>
<circle cx="170" cy="64" r="5" fill="#b07070" opacity="0.7"/>
<circle cx="108.89" cy="143.20" r="5" fill="#b07070" opacity="0.7"/>
<circle cx="255.56" cy="46.40" r="5" fill="#b07070" opacity="0.7"/>
<circle cx="206.67" cy="134.40" r="5" fill="#b07070" opacity="0.7"/>
<polyline points="145.56,196 225,181.04" stroke="#777"  />
<polygon points="225,181.04 209.09,189.45 207.12,178.99 " fill="#888" />
</svg>

