<?xml version="1.0" encoding="utf-8"?>
<!DOCTYPE svg PUBLIC "-//W3C//DTD SVG 1.1//EN" "http://www.w3.org/Graphics/SVG/1.1/DTD/svg11.dtd">
<svg width="550" height="350" xmlns="http://www.w3.org/2000/svg" xmlns:xlink="http://www.w3.org/1999/xlink">
<!-- SVG graphic by SVGdatashapes ... SVGdatashapes.com -->
<polyline points="100,250 400,250" stroke="#ccc"  />
<polyline points="400,250 100,250" stroke="#ccc"  />
<polyline points="100,250 100,258" stroke="#ccc"  />
<polyline points="200,250 200,258" stroke="#ccc"  />
<polyline points="300,250 300,258" stroke="#ccc"  />
<polyline points="400,250 400,258" stroke="#ccc"  />
<text x="135" y="263" style="font-family: sans-serif; font-weight: bold;" font-size="12pt" fill="#444" transform="rotate(45 135,263)" >Group A</text>
<text x="235" y="263" style="font-family: sans-serif; font-weight: bold;" font-size="12pt" fill="#444" transform="rotate(45 235,263)" >Group B</text>
<text x="335" y="263" style="font-family: sans-serif; font-weight: bold;" font-size="12pt" fill="#444" transform="rotate(45 335,263)" >Group C</text>
<polyline points="100,250 400,250" stroke="#ccc"  />
<polyline points="100,210 400,210" stroke="#ccc"  />
<polyline points="100,170 400,170" stroke="#ccc"  />
<polyline points="100,130 400,130" stroke="#ccc"  />
<polyline points="100,90 400,90" stroke="#ccc"  />
<polyline points="100,50 400,50" stroke="#ccc"  />
<text x="98" y="255" style="font-family: sans-serif; font-weight: bold;" font-size="12pt" fill="#444"  text-anchor="end" >0</text>
<text x="98" y="215" style="font-family: sans-serif; font-weight: bold;" font-size="12pt" fill="#444"  text-anchor="end" >20</text>
<text x="98" y="175" style="font-family: sans-serif; font-weight: bold;" font-size="12pt" fill="#444"  text-anchor="end" >40</text>
<text x="98" y="135" style="font-family: sans-serif; font-weight: bold;" font-size="12pt" fill="#444"  text-anchor="end" >60</text>
<text x="98" y="95" style="font-family: sans-serif; font-weight: bold;" font-size="12pt" fill="#444"  text-anchor="end" >80</text>
<text x="98" y="55" style="font-family: sans-serif; font-weight: bold;" font-size="12pt" fill="#444"  text-anchor="end" >100</text>
<rect x="100.0" y="50" width="300" height="200" fill="none" />
<text x="40" y="150" style="font-family: sans-serif; font-weight: bold;" font-size="12pt" fill="#444"  text-anchor="middle" transform="rotate(-90 40,150)" >Score</text>
<rect x="125.0" y="173.20" width="50" height="76.80" fill="#8a8" opacity="0.8"/>
<rect x="225.0" y="115.20" width="50" height="134.80" fill="#8a8" opacity="0.8"/>
<rect x="325.0" y="151.60" width="50" height="98.40" fill="#8a8" opacity="0.8"/>
<polyline points="100,130 400,130" stroke="#33a" stroke-dasharray="5,2"  />
<text x="410" y="135" style="font-family: sans-serif; font-weight: bold;" font-size="12pt" fill="#444" >Goal</text>
</svg>
