<?xml version="1.0" encoding="utf-8"?>
<!DOCTYPE svg PUBLIC "-//W3C//DTD SVG 1.1//EN" "http://www.w3.org/Graphics/SVG/1.1/DTD/svg11.dtd">
<svg width="550" height="450" xmlns="http://www.w3.org/2000/svg" xmlns:xlink="http://www.w3.org/1999/xlink">
<!-- SVG graphic by SVGdatashapes ... SVGdatashapes.com -->
<polyline points="100,350 530,350" stroke="#ccc"  />
<polyline points="530,350 100,350" stroke="#ccc"  />
<polyline points="100,350 100,358" stroke="#ccc"  />
<polyline points="143,350 143,358" stroke="#ccc"  />
<polyline points="186,350 186,358" stroke="#ccc"  />
<polyline points="229,350 229,358" stroke="#ccc"  />
<polyline points="272,350 272,358" stroke="#ccc"  />
<polyline points="315,350 315,358" stroke="#ccc"  />
<polyline points="358,350 358,358" stroke="#ccc"  />
<polyline points="401,350 401,358" stroke="#ccc"  />
<polyline points="444,350 444,358" stroke="#ccc"  />
<polyline points="487,350 487,358" stroke="#ccc"  />
<polyline points="530,350 530,358" stroke="#ccc"  />
<text x="115.05" y="363" style="font-family: sans-serif; font-weight: bold;" font-size="12pt" fill="#444" transform="rotate(45 115.05,363)" >Ohio</text>
<text x="158.05" y="363" style="font-family: sans-serif; font-weight: bold;" font-size="12pt" fill="#444" transform="rotate(45 158.05,363)" >Kansas</text>
<text x="201.05" y="363" style="font-family: sans-serif; font-weight: bold;" font-size="12pt" fill="#444" transform="rotate(45 201.05,363)" >Michigan</text>
<text x="244.05" y="363" style="font-family: sans-serif; font-weight: bold;" font-size="12pt" fill="#444" transform="rotate(45 244.05,363)" >Oklahoma</text>
<text x="287.05" y="363" style="font-family: sans-serif; font-weight: bold;" font-size="12pt" fill="#444" transform="rotate(45 287.05,363)" >Mississippi</text>
<text x="330.05" y="363" style="font-family: sans-serif; font-weight: bold;" font-size="12pt" fill="#444" transform="rotate(45 330.05,363)" >New Mexico</text>
<text x="373.05" y="363" style="font-family: sans-serif; font-weight: bold;" font-size="12pt" fill="#444" transform="rotate(45 373.05,363)" >Wisconsin</text>
<text x="416.05" y="363" style="font-family: sans-serif; font-weight: bold;" font-size="12pt" fill="#444" transform="rotate(45 416.05,363)" >South Dakota</text>
<text x="459.05" y="363" style="font-family: sans-serif; font-weight: bold;" font-size="12pt" fill="#444" transform="rotate(45 459.05,363)" >New Hampshire</text>
<text x="502.05" y="363" style="font-family: sans-serif; font-weight: bold;" font-size="12pt" fill="#444" transform="rotate(45 502.05,363)" >Georgia</text>
<polyline points="100,350 530,350" stroke="#ccc"  />
<polyline points="100,307.14 530,307.14" stroke="#ccc"  />
<polyline points="100,264.29 530,264.29" stroke="#ccc"  />
<polyline points="100,221.43 530,221.43" stroke="#ccc"  />
<polyline points="100,178.57 530,178.57" stroke="#ccc"  />
<polyline points="100,135.71 530,135.71" stroke="#ccc"  />
<polyline points="100,92.86 530,92.86" stroke="#ccc"  />
<polyline points="100,50 530,50" stroke="#ccc"  />
<text x="98" y="355" style="font-family: sans-serif; font-weight: bold;" font-size="12pt" fill="#444"  text-anchor="end" >0</text>
<text x="98" y="312.14" style="font-family: sans-serif; font-weight: bold;" font-size="12pt" fill="#444"  text-anchor="end" >20</text>
<text x="98" y="269.29" style="font-family: sans-serif; font-weight: bold;" font-size="12pt" fill="#444"  text-anchor="end" >40</text>
<text x="98" y="226.43" style="font-family: sans-serif; font-weight: bold;" font-size="12pt" fill="#444"  text-anchor="end" >60</text>
<text x="98" y="183.57" style="font-family: sans-serif; font-weight: bold;" font-size="12pt" fill="#444"  text-anchor="end" >80</text>
<text x="98" y="140.71" style="font-family: sans-serif; font-weight: bold;" font-size="12pt" fill="#444"  text-anchor="end" >100</text>
<text x="98" y="97.86" style="font-family: sans-serif; font-weight: bold;" font-size="12pt" fill="#444"  text-anchor="end" >120</text>
<text x="98" y="55" style="font-family: sans-serif; font-weight: bold;" font-size="12pt" fill="#444"  text-anchor="end" >140</text>
<rect x="100.0" y="50" width="430" height="300" fill="none" />
<text x="40" y="200" style="font-family: sans-serif; font-weight: bold;" font-size="12pt" fill="#444"  text-anchor="middle" transform="rotate(-90 40,200)" >Avg. Calls / day</text>
<polyline points="121.50,331.57 121.50,317" stroke="#777"  />
<polyline points="116.50,331.57 126.50,331.57" stroke="#777"  />
<polyline points="116.50,317 126.50,317" stroke="#777"  />
<rect x="111.5" y="324.29" width="20" height="25.71" fill="pink" opacity="0.8"/>
<polyline points="164.50,286.36 164.50,233.21" stroke="#777"  />
<polyline points="159.50,286.36 169.50,286.36" stroke="#777"  />
<polyline points="159.50,233.21 169.50,233.21" stroke="#777"  />
<rect x="154.5" y="259.79" width="20" height="90.21" fill="pink" opacity="0.8"/>
<polyline points="207.50,296.64 207.50,265.36" stroke="#777"  />
<polyline points="202.50,296.64 212.50,296.64" stroke="#777"  />
<polyline points="202.50,265.36 212.50,265.36" stroke="#777"  />
<rect x="197.5" y="281" width="20" height="69" fill="pink" opacity="0.8"/>
<polyline points="250.50,243.07 250.50,147.07" stroke="#777"  />
<polyline points="245.50,243.07 255.50,243.07" stroke="#777"  />
<polyline points="245.50,147.07 255.50,147.07" stroke="#777"  />
<rect x="240.5" y="195.07" width="20" height="154.93" fill="powderblue" opacity="0.8"/>
<polyline points="293.50,248.86 293.50,185.43" stroke="#777"  />
<polyline points="288.50,248.86 298.50,248.86" stroke="#777"  />
<polyline points="288.50,185.43 298.50,185.43" stroke="#777"  />
<rect x="283.5" y="217.14" width="20" height="132.86" fill="powderblue" opacity="0.8"/>
<polyline points="336.50,274.57 336.50,236.86" stroke="#777"  />
<polyline points="331.50,274.57 341.50,274.57" stroke="#777"  />
<polyline points="331.50,236.86 341.50,236.86" stroke="#777"  />
<rect x="326.5" y="255.71" width="20" height="94.29" fill="pink" opacity="0.8"/>
<polyline points="379.50,245.43 379.50,218.86" stroke="#777"  />
<polyline points="374.50,245.43 384.50,245.43" stroke="#777"  />
<polyline points="374.50,218.86 384.50,218.86" stroke="#777"  />
<rect x="369.5" y="232.14" width="20" height="117.86" fill="powderblue" opacity="0.8"/>
<polyline points="422.50,241.79 422.50,171.93" stroke="#777"  />
<polyline points="417.50,241.79 427.50,241.79" stroke="#777"  />
<polyline points="417.50,171.93 427.50,171.93" stroke="#777"  />
<rect x="412.5" y="206.86" width="20" height="143.14" fill="powderblue" opacity="0.8"/>
<polyline points="465.50,200.64 465.50,81.50" stroke="#777"  />
<polyline points="460.50,200.64 470.50,200.64" stroke="#777"  />
<polyline points="460.50,81.50 470.50,81.50" stroke="#777"  />
<rect x="455.5" y="141.07" width="20" height="208.93" fill="powderblue" opacity="0.8"/>
<polyline points="508.50,200.43 508.50,118.14" stroke="#777"  />
<polyline points="503.50,200.43 513.50,200.43" stroke="#777"  />
<polyline points="503.50,118.14 513.50,118.14" stroke="#777"  />
<rect x="498.5" y="159.29" width="20" height="190.71" fill="powderblue" opacity="0.8"/>
<rect x="107.0" y="60.67" width="6" height="6" fill="pink" />
<text x="118" y="66.67" style="font-family: sans-serif; font-weight: bold;" font-size="12pt" fill="#444" ><tspan>2010 expansion</tspan><tspan x="118" dy="1.05em">states</tspan></text>
<rect x="305.0" y="60.67" width="6" height="6" fill="powderblue" />
<text x="316" y="66.67" style="font-family: sans-serif; font-weight: bold;" font-size="12pt" fill="#444" ><tspan>Pre-2010</tspan><tspan x="316" dy="1.05em">states</tspan></text>
</svg>
