<?xml version="1.0" encoding="utf-8"?>
<!DOCTYPE svg PUBLIC "-//W3C//DTD SVG 1.1//EN" "http://www.w3.org/Graphics/SVG/1.1/DTD/svg11.dtd">
<svg width="800" height="200" xmlns="http://www.w3.org/2000/svg" xmlns:xlink="http://www.w3.org/1999/xlink">
<!-- SVG graphic by minplot -->
<polyline points="60,140 750,140" stroke="#777"  />
<polyline points="750,140 60,140" stroke="#777"  />
<text x="55.83" y="153" style="font-family: sans-serif; font-weight: bold;" fill="#777" transform="rotate(45 55.83,153)" >Mar 2016</text>
<polyline points="60,140 60,148" stroke="#777"  />
<text x="155.79" y="153" style="font-family: sans-serif; font-weight: bold;" fill="#777" transform="rotate(45 155.79,153)" >Apr</text>
<polyline points="159.95,140 159.95,148" stroke="#777"  />
<text x="252.52" y="153" style="font-family: sans-serif; font-weight: bold;" fill="#777" transform="rotate(45 252.52,153)" >May</text>
<polyline points="256.68,140 256.68,148" stroke="#777"  />
<text x="352.47" y="153" style="font-family: sans-serif; font-weight: bold;" fill="#777" transform="rotate(45 352.47,153)" >Jun</text>
<polyline points="356.64,140 356.64,148" stroke="#777"  />
<text x="449.20" y="153" style="font-family: sans-serif; font-weight: bold;" fill="#777" transform="rotate(45 449.20,153)" >Jul</text>
<polyline points="453.36,140 453.36,148" stroke="#777"  />
<text x="549.15" y="153" style="font-family: sans-serif; font-weight: bold;" fill="#777" transform="rotate(45 549.15,153)" >Aug</text>
<polyline points="553.32,140 553.32,148" stroke="#777"  />
<text x="649.10" y="153" style="font-family: sans-serif; font-weight: bold;" fill="#777" transform="rotate(45 649.10,153)" >Sep</text>
<polyline points="653.27,140 653.27,148" stroke="#777"  />
<text x="745.83" y="153" style="font-family: sans-serif; font-weight: bold;" fill="#777" transform="rotate(45 745.83,153)" >Oct</text>
<polyline points="750,140 750,148" stroke="#777"  />
<polyline points="60,140 60,20" stroke="#cfc"  />
<polyline points="60,20 60,140" stroke="#cfc"  />
<polyline points="60,20 52,20" stroke="#cfc"  />
<polyline points="60,41.82 52,41.82" stroke="#cfc"  />
<polyline points="60,63.64 52,63.64" stroke="#cfc"  />
<polyline points="60,85.45 52,85.45" stroke="#cfc"  />
<polyline points="60,107.27 52,107.27" stroke="#cfc"  />
<polyline points="60,129.09 52,129.09" stroke="#cfc"  />
<polyline points="60,20 750,20" stroke="#cfc"  />
<polyline points="60,41.82 750,41.82" stroke="#cfc"  />
<polyline points="60,63.64 750,63.64" stroke="#cfc"  />
<polyline points="60,85.45 750,85.45" stroke="#cfc"  />
<polyline points="60,107.27 750,107.27" stroke="#cfc"  />
<polyline points="60,129.09 750,129.09" stroke="#cfc"  />
<text x="50" y="24.17" style="font-family: sans-serif; font-weight: bold;" fill="#777"  text-anchor="end" >0</text>
<text x="50" y="45.98" style="font-family: sans-serif; font-weight: bold;" fill="#777"  text-anchor="end" >2</text>
<text x="50" y="67.80" style="font-family: sans-serif; font-weight: bold;" fill="#777"  text-anchor="end" >4</text>
<text x="50" y="89.62" style="font-family: sans-serif; font-weight: bold;" fill="#777"  text-anchor="end" >6</text>
<text x="50" y="111.44" style="font-family: sans-serif; font-weight: bold;" fill="#777"  text-anchor="end" >8</text>
<text x="50" y="133.26" style="font-family: sans-serif; font-weight: bold;" fill="#777"  text-anchor="end" >10</text>
<rect x="60.0" y="20" width="690" height="120" stroke="#777"  fill="none" />
<text x="60" y="15" style="font-family: sans-serif; font-weight: bold;" fill="#777" >Secchi depth readings</text>
<text x="0" y="80" style="font-family: sans-serif; font-weight: bold;" fill="#777"  text-anchor="middle" transform="rotate(-90 0,80)" >Depth (m)</text>
<polyline points="717.76,20 717.76,92" stroke="#99f"  />
<circle cx="717.76" cy="92" r="2.50" fill="#99f" opacity="0.7"/>
<polyline points="711.31,20 711.31,87.64" stroke="#99f"  />
<circle cx="711.31" cy="87.64" r="2.50" fill="#99f" opacity="0.7"/>
<polyline points="675.84,20 675.84,72.91" stroke="#99f"  />
<circle cx="675.84" cy="72.91" r="2.50" fill="#99f" opacity="0.7"/>
<polyline points="653.27,20 653.27,85.45" stroke="#99f"  />
<circle cx="653.27" cy="85.45" r="2.50" fill="#99f" opacity="0.7"/>
<polyline points="608.13,20 608.13,96.36" stroke="#99f"  />
<circle cx="608.13" cy="96.36" r="2.50" fill="#99f" opacity="0.7"/>
<polyline points="579.11,20 579.11,102.91" stroke="#99f"  />
<circle cx="579.11" cy="102.91" r="2.50" fill="#99f" opacity="0.7"/>
<polyline points="559.77,20 559.77,97.45" stroke="#99f"  />
<circle cx="559.77" cy="97.45" r="2.50" fill="#99f" opacity="0.7"/>
<polyline points="540.42,20 540.42,99.09" stroke="#99f"  />
<circle cx="540.42" cy="99.09" r="2.50" fill="#99f" opacity="0.7"/>
<polyline points="521.07,20 521.07,108.36" stroke="#99f"  />
<circle cx="521.07" cy="108.36" r="2.50" fill="#99f" opacity="0.7"/>
<polyline points="495.28,20 495.28,114.36" stroke="#99f"  />
<circle cx="495.28" cy="114.36" r="2.50" fill="#99f" opacity="0.7"/>
<polyline points="475.93,20 475.93,128.55" stroke="#99f"  />
<circle cx="475.93" cy="128.55" r="2.50" fill="#99f" opacity="0.7"/>
<polyline points="446.92,20 446.92,124.73" stroke="#99f"  />
<circle cx="446.92" cy="124.73" r="2.50" fill="#99f" opacity="0.7"/>
<polyline points="424.35,20 424.35,122.55" stroke="#99f"  />
<circle cx="424.35" cy="122.55" r="2.50" fill="#99f" opacity="0.7"/>
<polyline points="405,20 405,113.82" stroke="#99f"  />
<circle cx="405" cy="113.82" r="2.50" fill="#99f" opacity="0.7"/>
<polyline points="382.43,20 382.43,111.64" stroke="#99f"  />
<circle cx="382.43" cy="111.64" r="2.50" fill="#99f" opacity="0.7"/>
<polyline points="359.86,20 359.86,110.55" stroke="#99f"  />
<circle cx="359.86" cy="110.55" r="2.50" fill="#99f" opacity="0.7"/>
<polyline points="337.29,20 337.29,111.64" stroke="#99f"  />
<circle cx="337.29" cy="111.64" r="2.50" fill="#99f" opacity="0.7"/>
<polyline points="314.72,20 314.72,105.64" stroke="#99f"  />
<circle cx="314.72" cy="105.64" r="2.50" fill="#99f" opacity="0.7"/>
<polyline points="288.93,20 288.93,106.73" stroke="#99f"  />
<circle cx="288.93" cy="106.73" r="2.50" fill="#99f" opacity="0.7"/>
<polyline points="269.58,20 269.58,104" stroke="#99f"  />
<circle cx="269.58" cy="104" r="2.50" fill="#99f" opacity="0.7"/>
<polyline points="247.01,20 247.01,105.64" stroke="#99f"  />
<circle cx="247.01" cy="105.64" r="2.50" fill="#99f" opacity="0.7"/>
<polyline points="217.99,20 217.99,98" stroke="#99f"  />
<circle cx="217.99" cy="98" r="2.50" fill="#99f" opacity="0.7"/>
<polyline points="153.50,20 153.50,98.55" stroke="#99f"  />
<circle cx="153.50" cy="98.55" r="2.50" fill="#99f" opacity="0.7"/>
</svg>
