<?xml version="1.0" encoding="utf-8"?>
<!DOCTYPE svg PUBLIC "-//W3C//DTD SVG 1.1//EN" "http://www.w3.org/Graphics/SVG/1.1/DTD/svg11.dtd">
<svg width="800" height="220" xmlns="http://www.w3.org/2000/svg" xmlns:xlink="http://www.w3.org/1999/xlink">
<!-- SVG graphic by SVGdatashapes ... SVGdatashapes.com -->
<polyline points="100,160 750,160" stroke="#777"  />
<polyline points="750,160 100,160" stroke="#777"  />
<text x="97.92" y="173" style="font-family: sans-serif; font-weight: bold;" fill="#777" transform="rotate(45 97.92,173)" >Mar 2016</text>
<polyline points="100,160 100,168" stroke="#777"  />
<text x="192.08" y="173" style="font-family: sans-serif; font-weight: bold;" fill="#777" transform="rotate(45 192.08,173)" >Apr</text>
<polyline points="194.16,160 194.16,168" stroke="#777"  />
<text x="283.20" y="173" style="font-family: sans-serif; font-weight: bold;" fill="#777" transform="rotate(45 283.20,173)" >May</text>
<polyline points="285.28,160 285.28,168" stroke="#777"  />
<text x="377.36" y="173" style="font-family: sans-serif; font-weight: bold;" fill="#777" transform="rotate(45 377.36,173)" >Jun</text>
<polyline points="379.44,160 379.44,168" stroke="#777"  />
<text x="468.48" y="173" style="font-family: sans-serif; font-weight: bold;" fill="#777" transform="rotate(45 468.48,173)" >Jul</text>
<polyline points="470.56,160 470.56,168" stroke="#777"  />
<text x="562.64" y="173" style="font-family: sans-serif; font-weight: bold;" fill="#777" transform="rotate(45 562.64,173)" >Aug</text>
<polyline points="564.72,160 564.72,168" stroke="#777"  />
<text x="656.80" y="173" style="font-family: sans-serif; font-weight: bold;" fill="#777" transform="rotate(45 656.80,173)" >Sep</text>
<polyline points="658.88,160 658.88,168" stroke="#777"  />
<text x="747.92" y="173" style="font-family: sans-serif; font-weight: bold;" fill="#777" transform="rotate(45 747.92,173)" >Oct</text>
<polyline points="750,160 750,168" stroke="#777"  />
<polyline points="100,160 100,40" stroke="#cfc"  />
<polyline points="100,40 100,160" stroke="#cfc"  />
<polyline points="100,40 92,40" stroke="#cfc"  />
<polyline points="100,61.82 92,61.82" stroke="#cfc"  />
<polyline points="100,83.64 92,83.64" stroke="#cfc"  />
<polyline points="100,105.45 92,105.45" stroke="#cfc"  />
<polyline points="100,127.27 92,127.27" stroke="#cfc"  />
<polyline points="100,149.09 92,149.09" stroke="#cfc"  />
<polyline points="100,40 750,40" stroke="#cfc"  />
<polyline points="100,61.82 750,61.82" stroke="#cfc"  />
<polyline points="100,83.64 750,83.64" stroke="#cfc"  />
<polyline points="100,105.45 750,105.45" stroke="#cfc"  />
<polyline points="100,127.27 750,127.27" stroke="#cfc"  />
<polyline points="100,149.09 750,149.09" stroke="#cfc"  />
<text x="90" y="44.17" style="font-family: sans-serif; font-weight: bold;" fill="#777"  text-anchor="end" >0</text>
<text x="90" y="65.98" style="font-family: sans-serif; font-weight: bold;" fill="#777"  text-anchor="end" >2</text>
<text x="90" y="87.80" style="font-family: sans-serif; font-weight: bold;" fill="#777"  text-anchor="end" >4</text>
<text x="90" y="109.62" style="font-family: sans-serif; font-weight: bold;" fill="#777"  text-anchor="end" >6</text>
<text x="90" y="131.44" style="font-family: sans-serif; font-weight: bold;" fill="#777"  text-anchor="end" >8</text>
<text x="90" y="153.26" style="font-family: sans-serif; font-weight: bold;" fill="#777"  text-anchor="end" >10</text>
<rect x="100.0" y="40" width="650" height="120" stroke="#777"  fill="none" />
<text x="100" y="35" style="font-family: sans-serif; font-weight: bold;" fill="#777" >Secchi depth readings indicating water clarity: Stormy Lake</text>
<text x="40" y="100" style="font-family: sans-serif; font-weight: bold;" fill="#777"  text-anchor="middle" transform="rotate(-90 40,100)" >Depth (m)</text>
<polyline points="719.63,40 719.63,112" stroke-width="2" stroke="#99f"  />
<circle cx="719.63" cy="112" r="2.50" fill="#99f" opacity="0.7"/>
<polyline points="713.55,40 713.55,107.64" stroke-width="2" stroke="#99f"  />
<circle cx="713.55" cy="107.64" r="2.50" fill="#99f" opacity="0.7"/>
<polyline points="680.14,40 680.14,92.91" stroke-width="2" stroke="#99f"  />
<circle cx="680.14" cy="92.91" r="2.50" fill="#99f" opacity="0.7"/>
<polyline points="658.88,40 658.88,105.45" stroke-width="2" stroke="#99f"  />
<circle cx="658.88" cy="105.45" r="2.50" fill="#99f" opacity="0.7"/>
<polyline points="616.36,40 616.36,116.36" stroke-width="2" stroke="#99f"  />
<circle cx="616.36" cy="116.36" r="2.50" fill="#99f" opacity="0.7"/>
<polyline points="589.02,40 589.02,122.91" stroke-width="2" stroke="#99f"  />
<circle cx="589.02" cy="122.91" r="2.50" fill="#99f" opacity="0.7"/>
<polyline points="570.79,40 570.79,117.45" stroke-width="2" stroke="#99f"  />
<circle cx="570.79" cy="117.45" r="2.50" fill="#99f" opacity="0.7"/>
<polyline points="552.57,40 552.57,119.09" stroke-width="2" stroke="#99f"  />
<circle cx="552.57" cy="119.09" r="2.50" fill="#99f" opacity="0.7"/>
<polyline points="534.35,40 534.35,128.36" stroke-width="2" stroke="#99f"  />
<circle cx="534.35" cy="128.36" r="2.50" fill="#99f" opacity="0.7"/>
<polyline points="510.05,40 510.05,134.36" stroke-width="2" stroke="#99f"  />
<circle cx="510.05" cy="134.36" r="2.50" fill="#99f" opacity="0.7"/>
<polyline points="491.82,40 491.82,148.55" stroke-width="2" stroke="#99f"  />
<circle cx="491.82" cy="148.55" r="2.50" fill="#99f" opacity="0.7"/>
<polyline points="464.49,40 464.49,144.73" stroke-width="2" stroke="#99f"  />
<circle cx="464.49" cy="144.73" r="2.50" fill="#99f" opacity="0.7"/>
<polyline points="443.22,40 443.22,142.55" stroke-width="2" stroke="#99f"  />
<circle cx="443.22" cy="142.55" r="2.50" fill="#99f" opacity="0.7"/>
<polyline points="425,40 425,133.82" stroke-width="2" stroke="#99f"  />
<circle cx="425" cy="133.82" r="2.50" fill="#99f" opacity="0.7"/>
<polyline points="403.74,40 403.74,131.64" stroke-width="2" stroke="#99f"  />
<circle cx="403.74" cy="131.64" r="2.50" fill="#99f" opacity="0.7"/>
<polyline points="382.48,40 382.48,130.55" stroke-width="2" stroke="#99f"  />
<circle cx="382.48" cy="130.55" r="2.50" fill="#99f" opacity="0.7"/>
<polyline points="361.21,40 361.21,131.64" stroke-width="2" stroke="#99f"  />
<circle cx="361.21" cy="131.64" r="2.50" fill="#99f" opacity="0.7"/>
<polyline points="339.95,40 339.95,125.64" stroke-width="2" stroke="#99f"  />
<circle cx="339.95" cy="125.64" r="2.50" fill="#99f" opacity="0.7"/>
<polyline points="315.65,40 315.65,126.73" stroke-width="2" stroke="#99f"  />
<circle cx="315.65" cy="126.73" r="2.50" fill="#99f" opacity="0.7"/>
<polyline points="297.43,40 297.43,124" stroke-width="2" stroke="#99f"  />
<circle cx="297.43" cy="124" r="2.50" fill="#99f" opacity="0.7"/>
<polyline points="276.17,40 276.17,125.64" stroke-width="2" stroke="#99f"  />
<circle cx="276.17" cy="125.64" r="2.50" fill="#99f" opacity="0.7"/>
<polyline points="248.83,40 248.83,118" stroke-width="2" stroke="#99f"  />
<circle cx="248.83" cy="118" r="2.50" fill="#99f" opacity="0.7"/>
<polyline points="188.08,40 188.08,118.55" stroke-width="2" stroke="#99f"  />
<circle cx="188.08" cy="118.55" r="2.50" fill="#99f" opacity="0.7"/>
</svg>
