<?xml version="1.0" encoding="utf-8"?>
<!DOCTYPE svg PUBLIC "-//W3C//DTD SVG 1.1//EN" "http://www.w3.org/Graphics/SVG/1.1/DTD/svg11.dtd">
<svg width="300" height="340" xmlns="http://www.w3.org/2000/svg" xmlns:xlink="http://www.w3.org/1999/xlink">
<!-- SVG graphic by minplot -->
<polyline points="60,288 280,288" stroke="#777"  />
<polyline points="280,288 60,288" stroke="#777"  />
<polyline points="60,288 60,296" stroke="#777"  />
<polyline points="115,288 115,296" stroke="#777"  />
<polyline points="170,288 170,296" stroke="#777"  />
<polyline points="225,288 225,296" stroke="#777"  />
<polyline points="280,288 280,296" stroke="#777"  />
<text x="60" y="309.89" fill="#777"  text-anchor="middle" >-10</text>
<text x="115" y="309.89" fill="#777"  text-anchor="middle" >-5</text>
<text x="170" y="309.89" fill="#777"  text-anchor="middle" >0</text>
<text x="225" y="309.89" fill="#777"  text-anchor="middle" >5</text>
<text x="280" y="309.89" fill="#777"  text-anchor="middle" >10</text>
<polyline points="52,280 52,60" stroke="#777"  />
<polyline points="52,60 52,280" stroke="#777"  />
<polyline points="52,280 44,280" stroke="#777"  />
<polyline points="52,225 44,225" stroke="#777"  />
<polyline points="52,170 44,170" stroke="#777"  />
<polyline points="52,115 44,115" stroke="#777"  />
<polyline points="52,60 44,60" stroke="#777"  />
<text x="42" y="284.17" fill="#777"  text-anchor="end" >-10</text>
<text x="42" y="229.17" fill="#777"  text-anchor="end" >-5</text>
<text x="42" y="174.17" fill="#777"  text-anchor="end" >0</text>
<text x="42" y="119.17" fill="#777"  text-anchor="end" >5</text>
<text x="42" y="64.17" fill="#777"  text-anchor="end" >10</text>
<rect x="52.0" y="52" width="236" height="236" stroke="#777"  fill="#eee" />
<text x="170" y="328" fill="#777"  text-anchor="middle" > density [g/cm<tspan dy="-8.33" font-size="8pt">2</tspan><tspan dy="8.33">]</tspan></text>
<text x="20" y="170" fill="#777"  text-anchor="middle" transform="rotate(-90 20,170)" > density [g/cm<tspan dy="-8.33" font-size="8pt">2</tspan><tspan dy="8.33">]</tspan></text>
<polyline points="60,170 280,170" stroke="#888" stroke-dasharray="3,3"  />
<polyline points="170,280 170,60" stroke="#888" stroke-dasharray="3,3"  />
<g><title>(-6.3,-5.2)</title>
<circle cx="100.70" cy="227.20" r="4" fill="#a00" opacity="0.6"/>
</g>
<g><title>(0.4,1.8)</title>
<circle cx="174.40" cy="150.20" r="4" fill="#a00" opacity="0.6"/>
</g>
<g><title>(8.1,8.7)</title>
<circle cx="259.10" cy="74.30" r="4" fill="#a00" opacity="0.6"/>
</g>
<g><title>(-3.7,-5.1)</title>
<circle cx="129.30" cy="226.10" r="4" fill="#a00" opacity="0.6"/>
</g>
<g><title>(8.6,8.2)</title>
<circle cx="264.60" cy="79.80" r="4" fill="#a00" opacity="0.6"/>
</g>
<g><title>(-7.5,-8.3)</title>
<circle cx="87.50" cy="261.30" r="4" fill="#a00" opacity="0.6"/>
</g>
<g><title>(-8.0,-9.2)</title>
<circle cx="82" cy="271.20" r="4" fill="#a00" opacity="0.6"/>
</g>
<g><title>(-9.8,-9.1)</title>
<circle cx="62.20" cy="270.10" r="4" fill="#a00" opacity="0.6"/>
</g>
<g><title>(-6.7,-5.5)</title>
<circle cx="96.30" cy="230.50" r="4" fill="#a00" opacity="0.6"/>
</g>
<g><title>(7.6,6.9)</title>
<circle cx="253.60" cy="94.10" r="4" fill="#a00" opacity="0.6"/>
</g>
<g><title>(-3.0,-2.3)</title>
<circle cx="137" cy="195.30" r="4" fill="#a00" opacity="0.6"/>
</g>
<g><title>(-4.8,-5.4)</title>
<circle cx="117.20" cy="229.40" r="4" fill="#a00" opacity="0.6"/>
</g>
<g><title>(-1.1,-0.8)</title>
<circle cx="157.90" cy="178.80" r="4" fill="#a00" opacity="0.6"/>
</g>
<g><title>(6.4,5.7)</title>
<circle cx="240.40" cy="107.30" r="4" fill="#a00" opacity="0.6"/>
</g>
<g><title>(-5.2,-5.7)</title>
<circle cx="112.80" cy="232.70" r="4" fill="#a00" opacity="0.6"/>
</g>
<g><title>(9.7,9.9)</title>
<circle cx="276.70" cy="61.10" r="4" fill="#a00" opacity="0.6"/>
</g>
<g><title>(5.9,4.9)</title>
<circle cx="234.90" cy="116.10" r="4" fill="#a00" opacity="0.6"/>
</g>
<g><title>(-1.1,-2.5)</title>
<circle cx="157.90" cy="197.50" r="4" fill="#a00" opacity="0.6"/>
</g>
<g><title>(-8.3,-8.5)</title>
<circle cx="78.70" cy="263.50" r="4" fill="#a00" opacity="0.6"/>
</g>
<g><title>(5.8,5.5)</title>
<circle cx="233.80" cy="109.50" r="4" fill="#a00" opacity="0.6"/>
</g>
<g><title>(9.1,7.6)</title>
<circle cx="270.10" cy="86.40" r="4" fill="#a00" opacity="0.6"/>
</g>
<g><title>(-3.8,-3.8)</title>
<circle cx="128.20" cy="211.80" r="4" fill="#a00" opacity="0.6"/>
</g>
<g><title>(-7.0,-6.1)</title>
<circle cx="93" cy="237.10" r="4" fill="#a00" opacity="0.6"/>
</g>
<g><title>(-1.9,-2.7)</title>
<circle cx="149.10" cy="199.70" r="4" fill="#a00" opacity="0.6"/>
</g>
<g><title>(-5.9,-6.1)</title>
<circle cx="105.10" cy="237.10" r="4" fill="#a00" opacity="0.6"/>
</g>
<g><title>(0.3,-0.1)</title>
<circle cx="173.30" cy="171.10" r="4" fill="#a00" opacity="0.6"/>
</g>
<g><title>(-3.4,-4.7)</title>
<circle cx="132.60" cy="221.70" r="4" fill="#a00" opacity="0.6"/>
</g>
<g><title>(8.9,8.9)</title>
<circle cx="267.90" cy="72.10" r="4" fill="#a00" opacity="0.6"/>
</g>
<g><title>(1.0,2.1)</title>
<circle cx="181" cy="146.90" r="4" fill="#a00" opacity="0.6"/>
</g>
<g><title>(-3.5,-4.7)</title>
<circle cx="131.50" cy="221.70" r="4" fill="#a00" opacity="0.6"/>
</g>
<g><title>(4.0,1.6)</title>
<circle cx="214" cy="152.40" r="4" fill="#a00" opacity="0.6"/>
</g>
<g><title>(2.9,8.3)</title>
<circle cx="201.90" cy="78.70" r="4" fill="#a00" opacity="0.6"/>
</g>
<g><title>(-0.2,5.6)</title>
<circle cx="167.80" cy="108.40" r="4" fill="#a00" opacity="0.6"/>
</g>
<g><title>(2.4,-4.1)</title>
<circle cx="196.40" cy="215.10" r="4" fill="#a00" opacity="0.6"/>
</g>
<g><title>(1.4,-7.0)</title>
<circle cx="185.40" cy="247" r="4" fill="#a00" opacity="0.6"/>
</g>
<g><title>(1.6,7.6)</title>
<circle cx="187.60" cy="86.40" r="4" fill="#a00" opacity="0.6"/>
</g>
<g><title>(-1.0,-9.0)</title>
<circle cx="159" cy="269" r="4" fill="#a00" opacity="0.6"/>
</g>
<g><title>(8.8,0.7)</title>
<circle cx="266.80" cy="162.30" r="4" fill="#a00" opacity="0.6"/>
</g>
<g><title>(-5.1,5.4)</title>
<circle cx="113.90" cy="110.60" r="4" fill="#a00" opacity="0.6"/>
</g>
<g><title>(5.7,-4.5)</title>
<circle cx="232.70" cy="219.50" r="4" fill="#a00" opacity="0.6"/>
</g>
<g><title>(4.9,4.2)</title>
<circle cx="223.90" cy="123.80" r="4" fill="#00a" opacity="0.6"/>
</g>
<g><title>(-4.9,-3.8)</title>
<circle cx="116.10" cy="211.80" r="4" fill="#00a" opacity="0.6"/>
</g>
<g><title>(8.6,8.7)</title>
<circle cx="264.60" cy="74.30" r="4" fill="#00a" opacity="0.6"/>
</g>
<g><title>(0.9,1.1)</title>
<circle cx="179.90" cy="157.90" r="4" fill="#00a" opacity="0.6"/>
</g>
<g><title>(-7.8,-7.9)</title>
<circle cx="84.20" cy="256.90" r="4" fill="#00a" opacity="0.6"/>
</g>
<g><title>(-0.1,0.0)</title>
<circle cx="168.90" cy="170" r="4" fill="#00a" opacity="0.6"/>
</g>
<g><title>(8.6,8.0)</title>
<circle cx="264.60" cy="82" r="4" fill="#00a" opacity="0.6"/>
</g>
<g><title>(-3.4,-3.1)</title>
<circle cx="132.60" cy="204.10" r="4" fill="#00a" opacity="0.6"/>
</g>
<g><title>(-3.8,-4.5)</title>
<circle cx="128.20" cy="219.50" r="4" fill="#00a" opacity="0.6"/>
</g>
<g><title>(6.7,8.1)</title>
<circle cx="243.70" cy="80.90" r="4" fill="#00a" opacity="0.6"/>
</g>
<g><title>(-3.4,-3.0)</title>
<circle cx="132.60" cy="203" r="4" fill="#00a" opacity="0.6"/>
</g>
<g><title>(8.4,8.4)</title>
<circle cx="262.40" cy="77.60" r="4" fill="#00a" opacity="0.6"/>
</g>
<g><title>(-4.3,-5.1)</title>
<circle cx="122.70" cy="226.10" r="4" fill="#00a" opacity="0.6"/>
</g>
<g><title>(2.8,3.4)</title>
<circle cx="200.80" cy="132.60" r="4" fill="#00a" opacity="0.6"/>
</g>
<g><title>(5.4,5.3)</title>
<circle cx="229.40" cy="111.70" r="4" fill="#00a" opacity="0.6"/>
</g>
<g><title>(4.0,4.9)</title>
<circle cx="214" cy="116.10" r="4" fill="#00a" opacity="0.6"/>
</g>
<g><title>(8.3,9.6)</title>
<circle cx="261.30" cy="64.40" r="4" fill="#00a" opacity="0.6"/>
</g>
<g><title>(7.7,6.9)</title>
<circle cx="254.70" cy="94.10" r="4" fill="#00a" opacity="0.6"/>
</g>
<g><title>(1.7,2.2)</title>
<circle cx="188.70" cy="145.80" r="4" fill="#00a" opacity="0.6"/>
</g>
<g><title>(-6.8,-6.0)</title>
<circle cx="95.20" cy="236" r="4" fill="#00a" opacity="0.6"/>
</g>
<g><title>(6.4,5.8)</title>
<circle cx="240.40" cy="106.20" r="4" fill="#00a" opacity="0.6"/>
</g>
<g><title>(4.4,3.8)</title>
<circle cx="218.40" cy="128.20" r="4" fill="#00a" opacity="0.6"/>
</g>
<g><title>(2.8,4.3)</title>
<circle cx="200.80" cy="122.70" r="4" fill="#00a" opacity="0.6"/>
</g>
<g><title>(-2.0,-0.8)</title>
<circle cx="148" cy="178.80" r="4" fill="#00a" opacity="0.6"/>
</g>
<g><title>(-5.4,-5.7)</title>
<circle cx="110.60" cy="232.70" r="4" fill="#00a" opacity="0.6"/>
</g>
<g><title>(-0.2,1.2)</title>
<circle cx="167.80" cy="156.80" r="4" fill="#00a" opacity="0.6"/>
</g>
<g><title>(-3.3,-2.2)</title>
<circle cx="133.70" cy="194.20" r="4" fill="#00a" opacity="0.6"/>
</g>
<g><title>(5.7,5.5)</title>
<circle cx="232.70" cy="109.50" r="4" fill="#00a" opacity="0.6"/>
</g>
<g><title>(2.2,1.9)</title>
<circle cx="194.20" cy="149.10" r="4" fill="#00a" opacity="0.6"/>
</g>
<g><title>(-0.2,0.9)</title>
<circle cx="167.80" cy="160.10" r="4" fill="#00a" opacity="0.6"/>
</g>
<g><title>(7.7,-8.1)</title>
<circle cx="254.70" cy="259.10" r="4" fill="#00a" opacity="0.6"/>
</g>
<g><title>(-7.6,-8.0)</title>
<circle cx="86.40" cy="258" r="4" fill="#00a" opacity="0.6"/>
</g>
<g><title>(8.3,3.7)</title>
<circle cx="261.30" cy="129.30" r="4" fill="#00a" opacity="0.6"/>
</g>
<g><title>(-9.9,-0.3)</title>
<circle cx="61.10" cy="173.30" r="4" fill="#00a" opacity="0.6"/>
</g>
<g><title>(7.2,6.0)</title>
<circle cx="249.20" cy="104" r="4" fill="#00a" opacity="0.6"/>
</g>
<g><title>(-8.6,-3.6)</title>
<circle cx="75.40" cy="209.60" r="4" fill="#00a" opacity="0.6"/>
</g>
<g><title>(1.4,1.8)</title>
<circle cx="185.40" cy="150.20" r="4" fill="#00a" opacity="0.6"/>
</g>
<g><title>(-5.5,8.6)</title>
<circle cx="109.50" cy="75.40" r="4" fill="#00a" opacity="0.6"/>
</g>
<g><title>(1.1,-2.0)</title>
<circle cx="182.10" cy="192" r="4" fill="#00a" opacity="0.6"/>
</g>
<g><title>(7.8,-2.3)</title>
<circle cx="255.80" cy="195.30" r="4" fill="#00a" opacity="0.6"/>
</g>
<circle cx="70" cy="39.72" r="3.50" fill="#a00" />
<text x="78" y="43.89" fill="#777" >Group A</text>
<circle cx="158" cy="39.72" r="3.50" fill="#00a" />
<text x="166" y="43.89" fill="#777" >Group B</text>
</svg>
