<?xml version="1.0" encoding="utf-8"?>
<!DOCTYPE svg PUBLIC "-//W3C//DTD SVG 1.1//EN" "http://www.w3.org/Graphics/SVG/1.1/DTD/svg11.dtd">
<svg width="500" height="300" xmlns="http://www.w3.org/2000/svg" xmlns:xlink="http://www.w3.org/1999/xlink">
<!-- SVG graphic by minplot -->
<rect x="50.0" y="20" width="350" height="230" stroke-width="0.5" stroke="#aaa"  fill="none" />
<g><title>Delaware</title>
<polygon points="170.91,149.41 285,135 352.60,228.04 349.77,230.02 346.89,231.92 343.96,233.74 340.97,235.46 337.93,237.09 334.85,238.64 331.72,240.08 328.54,241.44 325.33,242.70 322.08,243.86 318.80,244.92 315.49,245.89 312.15,246.75 308.78,247.51 305.40,248.18 301.99,248.74 298.57,249.20 295.14,249.55 291.70,249.80 288.26,249.95 284.81,250 281.36,249.94 277.91,249.78 274.47,249.52 271.04,249.15 267.62,248.68 264.22,248.11 260.84,247.43 257.48,246.66 254.14,245.78 250.83,244.81 247.55,243.73 244.31,242.56 241.10,241.29 237.93,239.93 234.80,238.47 231.72,236.91 228.69,235.27 225.71,233.54 222.78,231.71 219.91,229.80 217.09,227.81 214.34,225.73 211.65,223.57 209.03,221.33 206.47,219.01 203.99,216.62 201.57,214.15 199.24,211.61 196.98,209.01 194.80,206.33 192.70,203.60 190.68,200.80 188.75,197.94 186.91,195.02 185.15,192.05 183.48,189.03 181.91,185.96 180.43,182.85 179.04,179.69 177.75,176.49 176.55,173.25 175.45,169.98 174.45,166.68 173.55,163.35 172.75,160 172.05,156.62 171.45,153.22 170.96,149.81 170.56,146.38 " stroke-width="4" stroke="#fff"  fill="#f00" opacity="0.5"/>
<text x="253.03" y="208.88" style="font-family: sans-serif; font-weight: bold;" fill="#333"  text-anchor="middle" >33%</text>
</g>
<g><title>Vermont</title>
<polygon points="270.59,20.91 285,135 170.91,149.41 170.53,145.98 170.25,142.55 170.07,139.10 170,135.65 170.03,132.20 170.17,128.75 170.41,125.31 170.75,121.88 171.20,118.46 171.74,115.05 172.39,111.66 173.14,108.30 173.99,104.95 174.95,101.64 176,98.35 177.14,95.10 178.39,91.88 179.73,88.70 181.17,85.57 182.70,82.47 184.32,79.43 186.03,76.43 187.83,73.49 189.72,70.60 191.69,67.78 193.75,65.01 195.89,62.30 198.11,59.66 200.41,57.09 202.79,54.59 205.24,52.16 207.76,49.80 210.35,47.52 213.01,45.32 215.73,43.20 218.51,41.17 221.36,39.22 224.26,37.35 227.22,35.57 230.22,33.88 233.28,32.29 236.39,30.78 239.53,29.37 242.72,28.05 245.95,26.83 249.21,25.71 252.51,24.69 255.83,23.76 259.18,22.94 262.55,22.21 265.95,21.59 269.36,21.07 272.78,20.65 " stroke-width="4" stroke="#fff"  fill="#0f0" opacity="0.5"/>
<text x="221.39" y="85.66" style="font-family: sans-serif; font-weight: bold;" fill="#333"  text-anchor="middle" >25%</text>
</g>
<g><title>Alabama</title>
<polygon points="389.06,86.04 285,135 270.59,20.91 274.02,20.53 277.45,20.25 280.90,20.07 284.35,20 287.80,20.03 291.25,20.17 294.69,20.41 298.12,20.75 301.54,21.20 304.95,21.74 308.34,22.39 311.70,23.14 315.05,23.99 318.36,24.95 321.65,26 324.90,27.14 328.12,28.39 331.30,29.73 334.43,31.17 337.53,32.70 340.57,34.32 343.57,36.03 346.51,37.83 349.40,39.72 352.22,41.69 354.99,43.75 357.70,45.89 360.34,48.11 362.91,50.41 365.41,52.79 367.84,55.24 370.20,57.76 372.48,60.35 374.68,63.01 376.80,65.73 378.83,68.51 380.78,71.36 382.65,74.26 384.43,77.22 386.12,80.22 387.71,83.28 389.22,86.39 " stroke-width="4" stroke="#fff"  fill="#aaf" opacity="0.5"/>
<text x="323.78" y="64.46" style="font-family: sans-serif; font-weight: bold;" fill="#333"  text-anchor="middle" >20%</text>
</g>
<g><title>Utah</title>
<polygon points="385.77,190.40 285,135 389.06,86.04 390.48,89.18 391.80,92.36 393.04,95.59 394.17,98.84 395.20,102.14 396.14,105.46 396.98,108.80 397.71,112.17 398.35,115.56 398.88,118.97 399.31,122.40 399.63,125.83 399.86,129.27 399.98,132.72 399.99,136.17 399.91,139.62 399.72,143.06 399.42,146.50 399.03,149.93 398.53,153.34 397.93,156.74 397.22,160.12 396.42,163.47 395.52,166.80 394.51,170.10 393.41,173.37 392.21,176.61 390.91,179.80 389.52,182.96 388.04,186.07 386.46,189.14 384.79,192.16 " stroke-width="4" stroke="#fff"  fill="#0ff" opacity="0.5"/>
<text x="365.46" y="137.53" style="font-family: sans-serif; font-weight: bold;" fill="#333"  text-anchor="middle" >15%</text>
</g>
<g><title>Arkansas</title>
<polygon points="352.59,228.04 285,135 385.77,190.40 384.07,193.40 382.27,196.35 380.39,199.24 378.42,202.07 376.36,204.84 374.23,207.55 372.01,210.19 369.72,212.77 367.35,215.27 364.90,217.71 362.38,220.07 359.80,222.35 357.14,224.56 354.43,226.68 351.64,228.72 " stroke-width="4" stroke="#fff"  fill="#ff0" opacity="0.5"/>
<text x="345.38" y="188.24" style="font-family: sans-serif; font-weight: bold;" fill="#333"  text-anchor="middle" >7%</text>
</g>
<text x="55" y="33.89" style="font-family: sans-serif; font-weight: bold;" fill="#888" >Pie graph example</text>
<rect x="59.0" y="43.17" width="6" height="6" fill="#f00" />
<text x="70" y="49.17" style="font-family: sans-serif; font-weight: bold;" fill="#888" >Delaware</text>
<rect x="59.0" y="58.44" width="6" height="6" fill="#0f0" />
<text x="70" y="64.44" style="font-family: sans-serif; font-weight: bold;" fill="#888" >Vermont</text>
<rect x="59.0" y="73.72" width="6" height="6" fill="#aaf" />
<text x="70" y="79.72" style="font-family: sans-serif; font-weight: bold;" fill="#888" >Alabama</text>
<rect x="59.0" y="89" width="6" height="6" fill="#0ff" />
<text x="70" y="95" style="font-family: sans-serif; font-weight: bold;" fill="#888" >Utah</text>
<rect x="59.0" y="104.28" width="6" height="6" fill="#ff0" />
<text x="70" y="110.28" style="font-family: sans-serif; font-weight: bold;" fill="#888" >Arkansas</text>
</svg>
