<?xml version="1.0" encoding="utf-8"?>
<!DOCTYPE svg PUBLIC "-//W3C//DTD SVG 1.1//EN" "http://www.w3.org/Graphics/SVG/1.1/DTD/svg11.dtd">
<svg width="800" height="300" xmlns="http://www.w3.org/2000/svg" xmlns:xlink="http://www.w3.org/1999/xlink">
<!-- SVG graphic by minplot -->
<rect x="60.0" y="20" width="690" height="220" stroke="#777"  fill="none" />
<text x="60" y="15" fill="#555" >Date time data</text>
<polyline points="60,240 750,240" stroke="#777"  />
<polyline points="750,240 60,240" stroke="#777"  />
<text x="55.42" y="253" font-size="11pt" fill="#555" transform="rotate(45 55.42,253)" >Feb 29</text>
<polyline points="60,240 60,248" stroke="#777"  />
<polyline points="60,240 60,20" stroke="#777"  />
<text x="113.06" y="253" font-size="11pt" fill="#555" transform="rotate(45 113.06,253)" > 6am</text>
<polyline points="117.65,240 117.65,248" stroke="#777"  />
<polyline points="117.65,240 117.65,20" stroke="#777"  />
<text x="170.71" y="253" font-size="11pt" fill="#555" transform="rotate(45 170.71,253)" >12pm</text>
<polyline points="175.29,240 175.29,248" stroke="#777"  />
<polyline points="175.29,240 175.29,20" stroke="#777"  />
<text x="228.36" y="253" font-size="11pt" fill="#555" transform="rotate(45 228.36,253)" > 6pm</text>
<polyline points="232.94,240 232.94,248" stroke="#777"  />
<polyline points="232.94,240 232.94,20" stroke="#777"  />
<text x="286" y="253" font-size="11pt" fill="#555" transform="rotate(45 286,253)" >Mar 01</text>
<polyline points="290.59,240 290.59,248" stroke="#777"  />
<polyline points="290.59,240 290.59,20" stroke="#777"  />
<text x="343.65" y="253" font-size="11pt" fill="#555" transform="rotate(45 343.65,253)" > 6am</text>
<polyline points="348.23,240 348.23,248" stroke="#777"  />
<polyline points="348.23,240 348.23,20" stroke="#777"  />
<text x="401.30" y="253" font-size="11pt" fill="#555" transform="rotate(45 401.30,253)" >12pm</text>
<polyline points="405.88,240 405.88,248" stroke="#777"  />
<polyline points="405.88,240 405.88,20" stroke="#777"  />
<text x="458.94" y="253" font-size="11pt" fill="#555" transform="rotate(45 458.94,253)" > 6pm</text>
<polyline points="463.53,240 463.53,248" stroke="#777"  />
<polyline points="463.53,240 463.53,20" stroke="#777"  />
<text x="516.59" y="253" font-size="11pt" fill="#555" transform="rotate(45 516.59,253)" >Mar 02</text>
<polyline points="521.17,240 521.17,248" stroke="#777"  />
<polyline points="521.17,240 521.17,20" stroke="#777"  />
<text x="574.24" y="253" font-size="11pt" fill="#555" transform="rotate(45 574.24,253)" > 6am</text>
<polyline points="578.82,240 578.82,248" stroke="#777"  />
<polyline points="578.82,240 578.82,20" stroke="#777"  />
<text x="631.88" y="253" font-size="11pt" fill="#555" transform="rotate(45 631.88,253)" >12pm</text>
<polyline points="636.47,240 636.47,248" stroke="#777"  />
<polyline points="636.47,240 636.47,20" stroke="#777"  />
<text x="689.53" y="253" font-size="11pt" fill="#555" transform="rotate(45 689.53,253)" > 6pm</text>
<polyline points="694.11,240 694.11,248" stroke="#777"  />
<polyline points="694.11,240 694.11,20" stroke="#777"  />
<polyline points="60,240 60,20" stroke="#777"  />
<polyline points="60,20 60,240" stroke="#777"  />
<polyline points="60,240 52,240" stroke="#777"  />
<polyline points="60,203.33 52,203.33" stroke="#777"  />
<polyline points="60,166.67 52,166.67" stroke="#777"  />
<polyline points="60,130 52,130" stroke="#777"  />
<polyline points="60,93.33 52,93.33" stroke="#777"  />
<polyline points="60,56.67 52,56.67" stroke="#777"  />
<polyline points="60,20 52,20" stroke="#777"  />
<text x="50" y="244.58" font-size="11pt" fill="#555"  text-anchor="end" >20</text>
<text x="50" y="207.92" font-size="11pt" fill="#555"  text-anchor="end" >25</text>
<text x="50" y="171.25" font-size="11pt" fill="#555"  text-anchor="end" >30</text>
<text x="50" y="134.58" font-size="11pt" fill="#555"  text-anchor="end" >35</text>
<text x="50" y="97.92" font-size="11pt" fill="#555"  text-anchor="end" >40</text>
<text x="50" y="61.25" font-size="11pt" fill="#555"  text-anchor="end" >45</text>
<text x="50" y="24.58" font-size="11pt" fill="#555"  text-anchor="end" >50</text>
<rect x="278.532722209" y="56.67" width="5" height="183.33" fill="#4f4" opacity="0.6"/>
<rect x="278.844975632" y="144.67" width="5" height="95.33" fill="#4f4" opacity="0.6"/>
<rect x="436.455558134" y="225.33" width="5" height="14.67" fill="#4f4" opacity="0.6"/>
<rect x="422.014504525" y="166.67" width="5" height="73.33" fill="#4f4" opacity="0.6"/>
<rect x="511.300301694" y="108" width="5" height="132" fill="#4f4" opacity="0.6"/>
<rect x="622.598630773" y="152" width="5" height="88" fill="#4f4" opacity="0.6"/>
</svg>
