<?xml version="1.0" encoding="utf-8"?>
<!DOCTYPE svg PUBLIC "-//W3C//DTD SVG 1.1//EN" "http://www.w3.org/Graphics/SVG/1.1/DTD/svg11.dtd">
<svg width="800" height="300" xmlns="http://www.w3.org/2000/svg" xmlns:xlink="http://www.w3.org/1999/xlink">
<!-- SVG graphic by SVGdatashapes ... SVGdatashapes.com -->
<polyline points="50,240 750,240" stroke="#777"  />
<polyline points="750,240 50,240" stroke="#777"  />
<text x="47.71" y="253" font-size="11pt" fill="#555" transform="rotate(45 47.71,253)" >Feb 29</text>
<polyline points="50,240 50,248" stroke="#777"  />
<polyline points="50,240 50,20" stroke="#777"  />
<text x="106.19" y="253" font-size="11pt" fill="#555" transform="rotate(45 106.19,253)" > 6am</text>
<polyline points="108.48,240 108.48,248" stroke="#777"  />
<polyline points="108.48,240 108.48,20" stroke="#777"  />
<text x="164.67" y="253" font-size="11pt" fill="#555" transform="rotate(45 164.67,253)" >12pm</text>
<polyline points="166.96,240 166.96,248" stroke="#777"  />
<polyline points="166.96,240 166.96,20" stroke="#777"  />
<text x="223.16" y="253" font-size="11pt" fill="#555" transform="rotate(45 223.16,253)" > 6pm</text>
<polyline points="225.45,240 225.45,248" stroke="#777"  />
<polyline points="225.45,240 225.45,20" stroke="#777"  />
<text x="281.64" y="253" font-size="11pt" fill="#555" transform="rotate(45 281.64,253)" >Mar 01</text>
<polyline points="283.93,240 283.93,248" stroke="#777"  />
<polyline points="283.93,240 283.93,20" stroke="#777"  />
<text x="340.12" y="253" font-size="11pt" fill="#555" transform="rotate(45 340.12,253)" > 6am</text>
<polyline points="342.41,240 342.41,248" stroke="#777"  />
<polyline points="342.41,240 342.41,20" stroke="#777"  />
<text x="398.60" y="253" font-size="11pt" fill="#555" transform="rotate(45 398.60,253)" >12pm</text>
<polyline points="400.89,240 400.89,248" stroke="#777"  />
<polyline points="400.89,240 400.89,20" stroke="#777"  />
<text x="457.08" y="253" font-size="11pt" fill="#555" transform="rotate(45 457.08,253)" > 6pm</text>
<polyline points="459.38,240 459.38,248" stroke="#777"  />
<polyline points="459.38,240 459.38,20" stroke="#777"  />
<text x="515.57" y="253" font-size="11pt" fill="#555" transform="rotate(45 515.57,253)" >Mar 02</text>
<polyline points="517.86,240 517.86,248" stroke="#777"  />
<polyline points="517.86,240 517.86,20" stroke="#777"  />
<text x="574.05" y="253" font-size="11pt" fill="#555" transform="rotate(45 574.05,253)" > 6am</text>
<polyline points="576.34,240 576.34,248" stroke="#777"  />
<polyline points="576.34,240 576.34,20" stroke="#777"  />
<text x="632.53" y="253" font-size="11pt" fill="#555" transform="rotate(45 632.53,253)" >12pm</text>
<polyline points="634.82,240 634.82,248" stroke="#777"  />
<polyline points="634.82,240 634.82,20" stroke="#777"  />
<text x="691.01" y="253" font-size="11pt" fill="#555" transform="rotate(45 691.01,253)" > 6pm</text>
<polyline points="693.30,240 693.30,248" stroke="#777"  />
<polyline points="693.30,240 693.30,20" stroke="#777"  />
<polyline points="50,240 50,20" stroke="#777"  />
<polyline points="50,20 50,240" stroke="#777"  />
<polyline points="50,240 42,240" stroke="#777"  />
<polyline points="50,203.33 42,203.33" stroke="#777"  />
<polyline points="50,166.67 42,166.67" stroke="#777"  />
<polyline points="50,130 42,130" stroke="#777"  />
<polyline points="50,93.33 42,93.33" stroke="#777"  />
<polyline points="50,56.67 42,56.67" stroke="#777"  />
<polyline points="50,20 42,20" stroke="#777"  />
<text x="40" y="244.58" font-size="11pt" fill="#555"  text-anchor="end" >20</text>
<text x="40" y="207.92" font-size="11pt" fill="#555"  text-anchor="end" >25</text>
<text x="40" y="171.25" font-size="11pt" fill="#555"  text-anchor="end" >30</text>
<text x="40" y="134.58" font-size="11pt" fill="#555"  text-anchor="end" >35</text>
<text x="40" y="97.92" font-size="11pt" fill="#555"  text-anchor="end" >40</text>
<text x="40" y="61.25" font-size="11pt" fill="#555"  text-anchor="end" >45</text>
<text x="40" y="24.58" font-size="11pt" fill="#555"  text-anchor="end" >50</text>
<rect x="50.0" y="20" width="700" height="220" stroke="#777"  fill="none" />
<text x="50" y="15" font-size="11pt" fill="#555" >Date time data</text>
<rect x="271.736094995" y="56.67" width="5" height="183.33" fill="#4f4" opacity="0.6"/>
<rect x="272.05287383" y="144.67" width="5" height="95.33" fill="#4f4" opacity="0.6"/>
<rect x="431.947667672" y="225.33" width="5" height="14.67" fill="#4f4" opacity="0.6"/>
<rect x="417.297323432" y="166.67" width="5" height="73.33" fill="#4f4" opacity="0.6"/>
<rect x="507.877117661" y="108" width="5" height="132" fill="#4f4" opacity="0.6"/>
<rect x="620.788466001" y="152" width="5" height="88" fill="#4f4" opacity="0.6"/>
</svg>
