<?xml version="1.0" encoding="utf-8"?>
<!DOCTYPE svg PUBLIC "-//W3C//DTD SVG 1.1//EN" "http://www.w3.org/Graphics/SVG/1.1/DTD/svg11.dtd">
<svg width="550" height="450" xmlns="http://www.w3.org/2000/svg" xmlns:xlink="http://www.w3.org/1999/xlink">
<!-- SVG graphic by SVGdatashapes ... SVGdatashapes.com -->
<text x="100" y="376.67" style="font-family: sans-serif; font-weight: bold;" font-size="12pt" fill="#777"  text-anchor="middle" >0</text>
<text x="146.15" y="376.67" style="font-family: sans-serif; font-weight: bold;" font-size="12pt" fill="#777"  text-anchor="middle" >3</text>
<text x="192.31" y="376.67" style="font-family: sans-serif; font-weight: bold;" font-size="12pt" fill="#777"  text-anchor="middle" >6</text>
<text x="284.62" y="376.67" style="font-family: sans-serif; font-weight: bold;" font-size="12pt" fill="#777"  text-anchor="middle" >12</text>
<text x="469.23" y="376.67" style="font-family: sans-serif; font-weight: bold;" font-size="12pt" fill="#777"  text-anchor="middle" >24</text>
<polyline points="80,350 500,350" stroke="#aaa"  />
<polyline points="80,290 500,290" stroke="#aaa"  />
<polyline points="80,230 500,230" stroke="#aaa"  />
<polyline points="80,170 500,170" stroke="#aaa"  />
<polyline points="80,110 500,110" stroke="#aaa"  />
<polyline points="80,50 500,50" stroke="#aaa"  />
<text x="78" y="355" style="font-family: sans-serif; font-weight: bold;" font-size="12pt" fill="#777"  text-anchor="end" >0</text>
<text x="78" y="295" style="font-family: sans-serif; font-weight: bold;" font-size="12pt" fill="#777"  text-anchor="end" >20</text>
<text x="78" y="235" style="font-family: sans-serif; font-weight: bold;" font-size="12pt" fill="#777"  text-anchor="end" >40</text>
<text x="78" y="175" style="font-family: sans-serif; font-weight: bold;" font-size="12pt" fill="#777"  text-anchor="end" >60</text>
<text x="78" y="115" style="font-family: sans-serif; font-weight: bold;" font-size="12pt" fill="#777"  text-anchor="end" >80</text>
<text x="78" y="55" style="font-family: sans-serif; font-weight: bold;" font-size="12pt" fill="#777"  text-anchor="end" >100</text>
<rect x="100.0" y="50" width="400" height="300" fill="none" />
<text x="280" y="420" style="font-family: sans-serif; font-weight: bold;" font-size="12pt" fill="#777"  text-anchor="middle" >Months of follow up</text>
<text x="20" y="200" style="font-family: sans-serif; font-weight: bold;" font-size="12pt" fill="#777"  text-anchor="middle" transform="rotate(-90 20,200)" >O<tspan dy="5.0" font-size="9.60pt">2</tspan><tspan dy="-5.0"> exchange ratio [%]</tspan></text>
<polygon points="100,243.80 146.15,235.70 146.15,254.30 100,258.20 100,243.80 " fill="#cfc" opacity="0.5"/>
<polygon points="146.15,235.70 192.31,251.60 192.31,268.40 146.15,254.30 146.15,235.70 " fill="#cfc" opacity="0.5"/>
<polygon points="192.31,251.60 284.62,236.90 284.62,259.10 192.31,268.40 192.31,251.60 " fill="#cfc" opacity="0.5"/>
<polygon points="284.62,236.90 469.23,254 469.23,284 284.62,259.10 284.62,236.90 " fill="#cfc" opacity="0.5"/>
<polyline points="100,258.20 100,243.80" stroke-width="2" stroke="#8d8"  />
<polyline points="97.50,258.20 102.50,258.20" stroke-width="2" stroke="#8d8"  />
<polyline points="97.50,243.80 102.50,243.80" stroke-width="2" stroke="#8d8"  />
<polyline points="100,251 146.15,245" stroke-width="4" stroke="#8d8"  />
<polyline points="146.15,254.30 146.15,235.70" stroke-width="2" stroke="#8d8"  />
<polyline points="143.65,254.30 148.65,254.30" stroke-width="2" stroke="#8d8"  />
<polyline points="143.65,235.70 148.65,235.70" stroke-width="2" stroke="#8d8"  />
<polyline points="146.15,245 192.31,260" stroke-width="4" stroke="#8d8"  />
<polyline points="192.31,268.40 192.31,251.60" stroke-width="2" stroke="#8d8"  />
<polyline points="189.81,268.40 194.81,268.40" stroke-width="2" stroke="#8d8"  />
<polyline points="189.81,251.60 194.81,251.60" stroke-width="2" stroke="#8d8"  />
<polyline points="192.31,260 284.62,248" stroke-width="4" stroke="#8d8"  />
<polyline points="284.62,259.10 284.62,236.90" stroke-width="2" stroke="#8d8"  />
<polyline points="282.12,259.10 287.12,259.10" stroke-width="2" stroke="#8d8"  />
<polyline points="282.12,236.90 287.12,236.90" stroke-width="2" stroke="#8d8"  />
<polyline points="284.62,248 469.23,269" stroke-width="4" stroke="#8d8"  />
<polyline points="469.23,284 469.23,254" stroke-width="2" stroke="#8d8"  />
<polyline points="466.73,284 471.73,284" stroke-width="2" stroke="#8d8"  />
<polyline points="466.73,254 471.73,254" stroke-width="2" stroke="#8d8"  />
<g><title>33 %</title>
<circle cx="100" cy="251" r="6" fill="#8d8" opacity="0.5"/>
</g>
<g><title>35 %</title>
<circle cx="146.15" cy="245" r="6" fill="#8d8" opacity="0.5"/>
</g>
<g><title>30 %</title>
<circle cx="192.31" cy="260" r="6" fill="#8d8" opacity="0.5"/>
</g>
<g><title>34 %</title>
<circle cx="284.62" cy="248" r="6" fill="#8d8" opacity="0.5"/>
</g>
<g><title>27 %</title>
<circle cx="469.23" cy="269" r="6" fill="#8d8" opacity="0.5"/>
</g>
<polygon points="100,190.10 146.15,206.30 146.15,229.70 100,215.90 100,190.10 " fill="#ccf" opacity="0.5"/>
<polygon points="146.15,206.30 192.31,187.40 192.31,206.60 146.15,229.70 146.15,206.30 " fill="#ccf" opacity="0.5"/>
<polygon points="192.31,187.40 284.62,164.60 284.62,187.40 192.31,206.60 192.31,187.40 " fill="#ccf" opacity="0.5"/>
<polygon points="284.62,164.60 469.23,106.40 469.23,143.60 284.62,187.40 284.62,164.60 " fill="#ccf" opacity="0.5"/>
<polyline points="100,215.90 100,190.10" stroke-width="2" stroke="#88d"  />
<polyline points="97.50,215.90 102.50,215.90" stroke-width="2" stroke="#88d"  />
<polyline points="97.50,190.10 102.50,190.10" stroke-width="2" stroke="#88d"  />
<polyline points="100,203 146.15,218" stroke-width="4" stroke="#88d"  />
<polyline points="146.15,229.70 146.15,206.30" stroke-width="2" stroke="#88d"  />
<polyline points="143.65,229.70 148.65,229.70" stroke-width="2" stroke="#88d"  />
<polyline points="143.65,206.30 148.65,206.30" stroke-width="2" stroke="#88d"  />
<polyline points="146.15,218 192.31,197" stroke-width="4" stroke="#88d"  />
<polyline points="192.31,206.60 192.31,187.40" stroke-width="2" stroke="#88d"  />
<polyline points="189.81,206.60 194.81,206.60" stroke-width="2" stroke="#88d"  />
<polyline points="189.81,187.40 194.81,187.40" stroke-width="2" stroke="#88d"  />
<polyline points="192.31,197 284.62,176" stroke-width="4" stroke="#88d"  />
<polyline points="284.62,187.40 284.62,164.60" stroke-width="2" stroke="#88d"  />
<polyline points="282.12,187.40 287.12,187.40" stroke-width="2" stroke="#88d"  />
<polyline points="282.12,164.60 287.12,164.60" stroke-width="2" stroke="#88d"  />
<polyline points="284.62,176 469.23,125" stroke-width="4" stroke="#88d"  />
<polyline points="469.23,143.60 469.23,106.40" stroke-width="2" stroke="#88d"  />
<polyline points="466.73,143.60 471.73,143.60" stroke-width="2" stroke="#88d"  />
<polyline points="466.73,106.40 471.73,106.40" stroke-width="2" stroke="#88d"  />
<g><title>49 %</title>
<circle cx="100" cy="203" r="6" fill="#88d" opacity="0.5"/>
</g>
<g><title>44 %</title>
<circle cx="146.15" cy="218" r="6" fill="#88d" opacity="0.5"/>
</g>
<g><title>51 %</title>
<circle cx="192.31" cy="197" r="6" fill="#88d" opacity="0.5"/>
</g>
<g><title>58 %</title>
<circle cx="284.62" cy="176" r="6" fill="#88d" opacity="0.5"/>
</g>
<g><title>75 %</title>
<circle cx="469.23" cy="125" r="6" fill="#88d" opacity="0.5"/>
</g>
<polygon points="100,107.60 146.15,121.70 146.15,158.30 100,142.40 100,107.60 " fill="#fcc" opacity="0.5"/>
<polygon points="146.15,121.70 192.31,137 192.31,161 146.15,158.30 146.15,121.70 " fill="#fcc" opacity="0.5"/>
<polygon points="192.31,137 284.62,140.30 284.62,163.70 192.31,161 192.31,137 " fill="#fcc" opacity="0.5"/>
<polygon points="284.62,140.30 469.23,136.40 469.23,185.60 284.62,163.70 284.62,140.30 " fill="#fcc" opacity="0.5"/>
<polyline points="100,142.40 100,107.60" stroke-width="2" stroke="#d88"  />
<polyline points="97.50,142.40 102.50,142.40" stroke-width="2" stroke="#d88"  />
<polyline points="97.50,107.60 102.50,107.60" stroke-width="2" stroke="#d88"  />
<polyline points="100,125 146.15,140" stroke-width="4" stroke="#d88"  />
<polyline points="146.15,158.30 146.15,121.70" stroke-width="2" stroke="#d88"  />
<polyline points="143.65,158.30 148.65,158.30" stroke-width="2" stroke="#d88"  />
<polyline points="143.65,121.70 148.65,121.70" stroke-width="2" stroke="#d88"  />
<polyline points="146.15,140 192.31,149" stroke-width="4" stroke="#d88"  />
<polyline points="192.31,161 192.31,137" stroke-width="2" stroke="#d88"  />
<polyline points="189.81,161 194.81,161" stroke-width="2" stroke="#d88"  />
<polyline points="189.81,137 194.81,137" stroke-width="2" stroke="#d88"  />
<polyline points="192.31,149 284.62,152" stroke-width="4" stroke="#d88"  />
<polyline points="284.62,163.70 284.62,140.30" stroke-width="2" stroke="#d88"  />
<polyline points="282.12,163.70 287.12,163.70" stroke-width="2" stroke="#d88"  />
<polyline points="282.12,140.30 287.12,140.30" stroke-width="2" stroke="#d88"  />
<polyline points="284.62,152 469.23,161" stroke-width="4" stroke="#d88"  />
<polyline points="469.23,185.60 469.23,136.40" stroke-width="2" stroke="#d88"  />
<polyline points="466.73,185.60 471.73,185.60" stroke-width="2" stroke="#d88"  />
<polyline points="466.73,136.40 471.73,136.40" stroke-width="2" stroke="#d88"  />
<g><title>75 %</title>
<circle cx="100" cy="125" r="6" fill="#d88" opacity="0.5"/>
</g>
<g><title>70 %</title>
<circle cx="146.15" cy="140" r="6" fill="#d88" opacity="0.5"/>
</g>
<g><title>67 %</title>
<circle cx="192.31" cy="149" r="6" fill="#d88" opacity="0.5"/>
</g>
<g><title>66 %</title>
<circle cx="284.62" cy="152" r="6" fill="#d88" opacity="0.5"/>
</g>
<g><title>63 %</title>
<circle cx="469.23" cy="161" r="6" fill="#d88" opacity="0.5"/>
</g>
<polyline points="105,61.67 125,61.67" stroke-width="4" stroke="#8d8"  />
<text x="130" y="66.67" style="font-family: sans-serif; font-weight: bold;" font-size="12pt" fill="#777" >group1</text>
<polyline points="225,61.67 245,61.67" stroke-width="4" stroke="#88d"  />
<text x="250" y="66.67" style="font-family: sans-serif; font-weight: bold;" font-size="12pt" fill="#777" >group2</text>
<polyline points="345,61.67 365,61.67" stroke-width="4" stroke="#d88"  />
<text x="370" y="66.67" style="font-family: sans-serif; font-weight: bold;" font-size="12pt" fill="#777" >group3</text>
</svg>
