<?xml version="1.0" encoding="utf-8"?>
<!DOCTYPE svg PUBLIC "-//W3C//DTD SVG 1.1//EN" "http://www.w3.org/Graphics/SVG/1.1/DTD/svg11.dtd">
<svg width="600" height="200" xmlns="http://www.w3.org/2000/svg" xmlns:xlink="http://www.w3.org/1999/xlink">
<!-- SVG graphic by minplot -->
<rect x="267.5" y="20" width="62.50" height="135" fill="#ffc" />
<polyline points="80,120 80,128" stroke="#ada"  />
<polyline points="142.50,120 142.50,128" stroke="#ada"  />
<polyline points="205,120 205,128" stroke="#ada"  />
<polyline points="267.50,120 267.50,128" stroke="#ada"  />
<polyline points="330,120 330,128" stroke="#ada"  />
<polyline points="392.50,120 392.50,128" stroke="#ada"  />
<polyline points="455,120 455,128" stroke="#ada"  />
<polyline points="517.50,120 517.50,128" stroke="#ada"  />
<polyline points="580,120 580,128" stroke="#ada"  />
<polyline points="80,120 80,20" stroke="#ada"  />
<polyline points="142.50,120 142.50,20" stroke="#ada"  />
<polyline points="205,120 205,20" stroke="#ada"  />
<polyline points="267.50,120 267.50,20" stroke="#ada"  />
<polyline points="330,120 330,20" stroke="#ada"  />
<polyline points="392.50,120 392.50,20" stroke="#ada"  />
<polyline points="455,120 455,20" stroke="#ada"  />
<polyline points="517.50,120 517.50,20" stroke="#ada"  />
<polyline points="580,120 580,20" stroke="#ada"  />
<text x="111.25" y="144.67" style="font-family: sans-serif; font-weight: bold;" font-size="12pt" fill="#444"  text-anchor="middle" >A</text>
<text x="173.75" y="144.67" style="font-family: sans-serif; font-weight: bold;" font-size="12pt" fill="#444"  text-anchor="middle" >B</text>
<text x="236.25" y="144.67" style="font-family: sans-serif; font-weight: bold;" font-size="12pt" fill="#444"  text-anchor="middle" >C</text>
<text x="298.75" y="144.67" style="font-family: sans-serif; font-weight: bold;" font-size="12pt" fill="#444"  text-anchor="middle" >D</text>
<text x="361.25" y="144.67" style="font-family: sans-serif; font-weight: bold;" font-size="12pt" fill="#444"  text-anchor="middle" >E</text>
<text x="423.75" y="144.67" style="font-family: sans-serif; font-weight: bold;" font-size="12pt" fill="#444"  text-anchor="middle" >F</text>
<text x="486.25" y="144.67" style="font-family: sans-serif; font-weight: bold;" font-size="12pt" fill="#444"  text-anchor="middle" >G</text>
<text x="548.75" y="144.67" style="font-family: sans-serif; font-weight: bold;" font-size="12pt" fill="#444"  text-anchor="middle" >H</text>
<text x="68" y="125" style="font-family: sans-serif; font-weight: bold;" font-size="12pt" fill="#444"  text-anchor="end" >0</text>
<text x="68" y="100" style="font-family: sans-serif; font-weight: bold;" font-size="12pt" fill="#444"  text-anchor="end" >10</text>
<text x="68" y="75" style="font-family: sans-serif; font-weight: bold;" font-size="12pt" fill="#444"  text-anchor="end" >20</text>
<text x="68" y="50" style="font-family: sans-serif; font-weight: bold;" font-size="12pt" fill="#444"  text-anchor="end" >30</text>
<text x="68" y="25" style="font-family: sans-serif; font-weight: bold;" font-size="12pt" fill="#444"  text-anchor="end" >40</text>
<rect x="80.0" y="20" width="500" height="100" fill="none" />
<text x="330" y="180" style="font-family: sans-serif; font-weight: bold;" font-size="12pt" fill="#444"  text-anchor="middle" >Group</text>
<text x="20" y="70" style="font-family: sans-serif; font-weight: bold;" font-size="12pt" fill="#444"  text-anchor="middle" transform="rotate(-90 20,70)" >weight [g]</text>
<polyline points="95.62,89.75 95.62,78.25" stroke="#bbb"  />
<polyline points="93.12,89.75 98.12,89.75" stroke="#bbb"  />
<polyline points="93.12,78.25 98.12,78.25" stroke="#bbb"  />
<polyline points="106.04,87.50 106.04,66" stroke="#bbb"  />
<polyline points="103.54,87.50 108.54,87.50" stroke="#bbb"  />
<polyline points="103.54,66 108.54,66" stroke="#bbb"  />
<polyline points="116.46,77.25 116.46,45.25" stroke="#bbb"  />
<polyline points="113.96,77.25 118.96,77.25" stroke="#bbb"  />
<polyline points="113.96,45.25 118.96,45.25" stroke="#bbb"  />
<polyline points="126.88,82.75 126.88,53.75" stroke="#bbb"  />
<polyline points="124.38,82.75 129.38,82.75" stroke="#bbb"  />
<polyline points="124.38,53.75 129.38,53.75" stroke="#bbb"  />
<circle cx="95.62" cy="84" r="2.50" fill="#b44" opacity="0.7"/>
<polyline points="95.62,84 106.04,76.75" stroke-width="2" stroke="#b44"  />
<circle cx="106.04" cy="76.75" r="2.50" fill="#b44" opacity="0.7"/>
<polyline points="106.04,76.75 116.46,61.25" stroke-width="2" stroke="#b44"  />
<circle cx="116.46" cy="61.25" r="2.50" fill="#b44" opacity="0.7"/>
<polyline points="116.46,61.25 126.88,68.25" stroke-width="2" stroke="#b44"  />
<circle cx="126.88" cy="68.25" r="2.50" fill="#b44" opacity="0.7"/>
<polyline points="158.12,89 158.12,70" stroke="#bbb"  />
<polyline points="155.62,89 160.62,89" stroke="#bbb"  />
<polyline points="155.62,70 160.62,70" stroke="#bbb"  />
<polyline points="168.54,81 168.54,64.50" stroke="#bbb"  />
<polyline points="166.04,81 171.04,81" stroke="#bbb"  />
<polyline points="166.04,64.50 171.04,64.50" stroke="#bbb"  />
<polyline points="178.96,85 178.96,29" stroke="#bbb"  />
<polyline points="176.46,85 181.46,85" stroke="#bbb"  />
<polyline points="176.46,29 181.46,29" stroke="#bbb"  />
<polyline points="189.38,71 189.38,40.50" stroke="#bbb"  />
<polyline points="186.88,71 191.88,71" stroke="#bbb"  />
<polyline points="186.88,40.50 191.88,40.50" stroke="#bbb"  />
<circle cx="158.12" cy="79.50" r="2.50" fill="#b44" opacity="0.7"/>
<polyline points="158.12,79.50 168.54,72.75" stroke-width="2" stroke="#b44"  />
<circle cx="168.54" cy="72.75" r="2.50" fill="#b44" opacity="0.7"/>
<polyline points="168.54,72.75 178.96,57" stroke-width="2" stroke="#b44"  />
<circle cx="178.96" cy="57" r="2.50" fill="#b44" opacity="0.7"/>
<polyline points="178.96,57 189.38,55.75" stroke-width="2" stroke="#b44"  />
<circle cx="189.38" cy="55.75" r="2.50" fill="#b44" opacity="0.7"/>
<polyline points="220.62,99.25 220.62,84.25" stroke="#bbb"  />
<polyline points="218.12,99.25 223.12,99.25" stroke="#bbb"  />
<polyline points="218.12,84.25 223.12,84.25" stroke="#bbb"  />
<polyline points="231.04,100.50 231.04,71.50" stroke="#bbb"  />
<polyline points="228.54,100.50 233.54,100.50" stroke="#bbb"  />
<polyline points="228.54,71.50 233.54,71.50" stroke="#bbb"  />
<polyline points="241.46,86.50 241.46,67" stroke="#bbb"  />
<polyline points="238.96,86.50 243.96,86.50" stroke="#bbb"  />
<polyline points="238.96,67 243.96,67" stroke="#bbb"  />
<polyline points="251.88,81.25 251.88,47.25" stroke="#bbb"  />
<polyline points="249.38,81.25 254.38,81.25" stroke="#bbb"  />
<polyline points="249.38,47.25 254.38,47.25" stroke="#bbb"  />
<circle cx="220.62" cy="91.75" r="2.50" fill="#b44" opacity="0.7"/>
<polyline points="220.62,91.75 231.04,86" stroke-width="2" stroke="#b44"  />
<circle cx="231.04" cy="86" r="2.50" fill="#b44" opacity="0.7"/>
<polyline points="231.04,86 241.46,76.75" stroke-width="2" stroke="#b44"  />
<circle cx="241.46" cy="76.75" r="2.50" fill="#b44" opacity="0.7"/>
<polyline points="241.46,76.75 251.88,64.25" stroke-width="2" stroke="#b44"  />
<circle cx="251.88" cy="64.25" r="2.50" fill="#b44" opacity="0.7"/>
<polyline points="283.12,86 283.12,60" stroke="#bbb"  />
<polyline points="280.62,86 285.62,86" stroke="#bbb"  />
<polyline points="280.62,60 285.62,60" stroke="#bbb"  />
<polyline points="303.96,68.75 303.96,32.25" stroke="#bbb"  />
<polyline points="301.46,68.75 306.46,68.75" stroke="#bbb"  />
<polyline points="301.46,32.25 306.46,32.25" stroke="#bbb"  />
<polyline points="314.38,66 314.38,25.50" stroke="#bbb"  />
<polyline points="311.88,66 316.88,66" stroke="#bbb"  />
<polyline points="311.88,25.50 316.88,25.50" stroke="#bbb"  />
<circle cx="283.12" cy="73" r="2.50" fill="#b44" opacity="0.7"/>
<polyline points="283.12,73 303.96,50.50" stroke-width="2" stroke="#b44"  />
<circle cx="303.96" cy="50.50" r="2.50" fill="#b44" opacity="0.7"/>
<polyline points="303.96,50.50 314.38,45.75" stroke-width="2" stroke="#b44"  />
<circle cx="314.38" cy="45.75" r="2.50" fill="#b44" opacity="0.7"/>
<polyline points="345.62,93 345.62,59" stroke="#bbb"  />
<polyline points="343.12,93 348.12,93" stroke="#bbb"  />
<polyline points="343.12,59 348.12,59" stroke="#bbb"  />
<polyline points="356.04,83.25 356.04,60.75" stroke="#bbb"  />
<polyline points="353.54,83.25 358.54,83.25" stroke="#bbb"  />
<polyline points="353.54,60.75 358.54,60.75" stroke="#bbb"  />
<polyline points="366.46,82.75 366.46,43.75" stroke="#bbb"  />
<polyline points="363.96,82.75 368.96,82.75" stroke="#bbb"  />
<polyline points="363.96,43.75 368.96,43.75" stroke="#bbb"  />
<polyline points="376.88,73.75 376.88,47.25" stroke="#bbb"  />
<polyline points="374.38,73.75 379.38,73.75" stroke="#bbb"  />
<polyline points="374.38,47.25 379.38,47.25" stroke="#bbb"  />
<circle cx="345.62" cy="76" r="2.50" fill="#b44" opacity="0.7"/>
<polyline points="345.62,76 356.04,72" stroke-width="2" stroke="#b44"  />
<circle cx="356.04" cy="72" r="2.50" fill="#b44" opacity="0.7"/>
<polyline points="356.04,72 366.46,63.25" stroke-width="2" stroke="#b44"  />
<circle cx="366.46" cy="63.25" r="2.50" fill="#b44" opacity="0.7"/>
<polyline points="366.46,63.25 376.88,60.50" stroke-width="2" stroke="#b44"  />
<circle cx="376.88" cy="60.50" r="2.50" fill="#b44" opacity="0.7"/>
<polyline points="408.12,90.75 408.12,79.75" stroke="#bbb"  />
<polyline points="405.62,90.75 410.62,90.75" stroke="#bbb"  />
<polyline points="405.62,79.75 410.62,79.75" stroke="#bbb"  />
<polyline points="418.54,82 418.54,70" stroke="#bbb"  />
<polyline points="416.04,82 421.04,82" stroke="#bbb"  />
<polyline points="416.04,70 421.04,70" stroke="#bbb"  />
<polyline points="428.96,80.25 428.96,59.25" stroke="#bbb"  />
<polyline points="426.46,80.25 431.46,80.25" stroke="#bbb"  />
<polyline points="426.46,59.25 431.46,59.25" stroke="#bbb"  />
<polyline points="439.38,76 439.38,40" stroke="#bbb"  />
<polyline points="436.88,76 441.88,76" stroke="#bbb"  />
<polyline points="436.88,40 441.88,40" stroke="#bbb"  />
<circle cx="408.12" cy="85.25" r="2.50" fill="#b44" opacity="0.7"/>
<polyline points="408.12,85.25 418.54,76" stroke-width="2" stroke="#b44"  />
<circle cx="418.54" cy="76" r="2.50" fill="#b44" opacity="0.7"/>
<polyline points="418.54,76 428.96,69.75" stroke-width="2" stroke="#b44"  />
<circle cx="428.96" cy="69.75" r="2.50" fill="#b44" opacity="0.7"/>
<polyline points="428.96,69.75 439.38,58" stroke-width="2" stroke="#b44"  />
<circle cx="439.38" cy="58" r="2.50" fill="#b44" opacity="0.7"/>
<polyline points="470.62,95.75 470.62,78.25" stroke="#bbb"  />
<polyline points="468.12,95.75 473.12,95.75" stroke="#bbb"  />
<polyline points="468.12,78.25 473.12,78.25" stroke="#bbb"  />
<polyline points="481.04,86.25 481.04,54.75" stroke="#bbb"  />
<polyline points="478.54,86.25 483.54,86.25" stroke="#bbb"  />
<polyline points="478.54,54.75 483.54,54.75" stroke="#bbb"  />
<polyline points="501.88,67.75 501.88,38.75" stroke="#bbb"  />
<polyline points="499.38,67.75 504.38,67.75" stroke="#bbb"  />
<polyline points="499.38,38.75 504.38,38.75" stroke="#bbb"  />
<circle cx="470.62" cy="87" r="2.50" fill="#b44" opacity="0.7"/>
<polyline points="470.62,87 481.04,70.50" stroke-width="2" stroke="#b44"  />
<circle cx="481.04" cy="70.50" r="2.50" fill="#b44" opacity="0.7"/>
<polyline points="481.04,70.50 501.88,53.25" stroke-width="2" stroke="#b44"  />
<circle cx="501.88" cy="53.25" r="2.50" fill="#b44" opacity="0.7"/>
<polyline points="533.12,91.75 533.12,76.75" stroke="#bbb"  />
<polyline points="530.62,91.75 535.62,91.75" stroke="#bbb"  />
<polyline points="530.62,76.75 535.62,76.75" stroke="#bbb"  />
<polyline points="543.54,98 543.54,74" stroke="#bbb"  />
<polyline points="541.04,98 546.04,98" stroke="#bbb"  />
<polyline points="541.04,74 546.04,74" stroke="#bbb"  />
<polyline points="553.96,91.50 553.96,67" stroke="#bbb"  />
<polyline points="551.46,91.50 556.46,91.50" stroke="#bbb"  />
<polyline points="551.46,67 556.46,67" stroke="#bbb"  />
<polyline points="564.38,78.75 564.38,59.75" stroke="#bbb"  />
<polyline points="561.88,78.75 566.88,78.75" stroke="#bbb"  />
<polyline points="561.88,59.75 566.88,59.75" stroke="#bbb"  />
<circle cx="533.12" cy="84.25" r="2.50" fill="#b44" opacity="0.7"/>
<polyline points="533.12,84.25 543.54,86" stroke-width="2" stroke="#b44"  />
<circle cx="543.54" cy="86" r="2.50" fill="#b44" opacity="0.7"/>
<polyline points="543.54,86 553.96,79.25" stroke-width="2" stroke="#b44"  />
<circle cx="553.96" cy="79.25" r="2.50" fill="#b44" opacity="0.7"/>
<polyline points="553.96,79.25 564.38,69.25" stroke-width="2" stroke="#b44"  />
<circle cx="564.38" cy="69.25" r="2.50" fill="#b44" opacity="0.7"/>
</svg>
