<?xml version="1.0" encoding="utf-8"?>
<!DOCTYPE svg PUBLIC "-//W3C//DTD SVG 1.1//EN" "http://www.w3.org/Graphics/SVG/1.1/DTD/svg11.dtd">
<svg width="600" height="200" xmlns="http://www.w3.org/2000/svg" xmlns:xlink="http://www.w3.org/1999/xlink">
<!-- SVG graphic by minplot -->
<polyline points="80,120 80,128" stroke="#ada"  />
<polyline points="142.50,120 142.50,128" stroke="#ada"  />
<polyline points="205,120 205,128" stroke="#ada"  />
<polyline points="267.50,120 267.50,128" stroke="#ada"  />
<polyline points="330,120 330,128" stroke="#ada"  />
<polyline points="392.50,120 392.50,128" stroke="#ada"  />
<polyline points="455,120 455,128" stroke="#ada"  />
<polyline points="517.50,120 517.50,128" stroke="#ada"  />
<polyline points="580,120 580,128" stroke="#ada"  />
<polyline points="80,120 80,20" stroke="#ada"  />
<polyline points="142.50,120 142.50,20" stroke="#ada"  />
<polyline points="205,120 205,20" stroke="#ada"  />
<polyline points="267.50,120 267.50,20" stroke="#ada"  />
<polyline points="330,120 330,20" stroke="#ada"  />
<polyline points="392.50,120 392.50,20" stroke="#ada"  />
<polyline points="455,120 455,20" stroke="#ada"  />
<polyline points="517.50,120 517.50,20" stroke="#ada"  />
<polyline points="580,120 580,20" stroke="#ada"  />
<text x="111.25" y="144.67" style="font-family: sans-serif; font-weight: bold;" font-size="12pt" fill="#444"  text-anchor="middle" >A</text>
<text x="173.75" y="144.67" style="font-family: sans-serif; font-weight: bold;" font-size="12pt" fill="#444"  text-anchor="middle" >B</text>
<text x="236.25" y="144.67" style="font-family: sans-serif; font-weight: bold;" font-size="12pt" fill="#444"  text-anchor="middle" >C</text>
<text x="298.75" y="144.67" style="font-family: sans-serif; font-weight: bold;" font-size="12pt" fill="#444"  text-anchor="middle" >D</text>
<text x="361.25" y="144.67" style="font-family: sans-serif; font-weight: bold;" font-size="12pt" fill="#444"  text-anchor="middle" >E</text>
<text x="423.75" y="144.67" style="font-family: sans-serif; font-weight: bold;" font-size="12pt" fill="#444"  text-anchor="middle" >F</text>
<text x="486.25" y="144.67" style="font-family: sans-serif; font-weight: bold;" font-size="12pt" fill="#444"  text-anchor="middle" >G</text>
<text x="548.75" y="144.67" style="font-family: sans-serif; font-weight: bold;" font-size="12pt" fill="#444"  text-anchor="middle" >H</text>
<text x="68" y="125" style="font-family: sans-serif; font-weight: bold;" font-size="12pt" fill="#444"  text-anchor="end" >0</text>
<text x="68" y="96.43" style="font-family: sans-serif; font-weight: bold;" font-size="12pt" fill="#444"  text-anchor="end" >10</text>
<text x="68" y="67.86" style="font-family: sans-serif; font-weight: bold;" font-size="12pt" fill="#444"  text-anchor="end" >20</text>
<text x="68" y="39.29" style="font-family: sans-serif; font-weight: bold;" font-size="12pt" fill="#444"  text-anchor="end" >30</text>
<rect x="80.0" y="20" width="500" height="100" fill="none" />
<text x="330" y="175" style="font-family: sans-serif; font-weight: bold;" font-size="12pt" fill="#444"  text-anchor="middle" >Group</text>
<text x="32" y="70" style="font-family: sans-serif; font-weight: bold;" font-size="12pt" fill="#444"  text-anchor="middle" transform="rotate(-90 32,70)" >weight [g]</text>
<polyline points="95.62,85.43 95.62,72.29" stroke="#bbb"  />
<polyline points="93.12,85.43 98.12,85.43" stroke="#bbb"  />
<polyline points="93.12,72.29 98.12,72.29" stroke="#bbb"  />
<polyline points="106.04,82.86 106.04,58.29" stroke="#bbb"  />
<polyline points="103.54,82.86 108.54,82.86" stroke="#bbb"  />
<polyline points="103.54,58.29 108.54,58.29" stroke="#bbb"  />
<polyline points="116.46,71.14 116.46,34.57" stroke="#bbb"  />
<polyline points="113.96,71.14 118.96,71.14" stroke="#bbb"  />
<polyline points="113.96,34.57 118.96,34.57" stroke="#bbb"  />
<polyline points="126.88,77.43 126.88,44.29" stroke="#bbb"  />
<polyline points="124.38,77.43 129.38,77.43" stroke="#bbb"  />
<polyline points="124.38,44.29 129.38,44.29" stroke="#bbb"  />
<circle cx="95.62" cy="78.86" r="2.50" fill="#b44" opacity="0.7"/>
<polyline points="95.62,78.86 106.04,70.57" stroke-width="2" stroke="#b44"  />
<circle cx="106.04" cy="70.57" r="2.50" fill="#b44" opacity="0.7"/>
<polyline points="106.04,70.57 116.46,52.86" stroke-width="2" stroke="#b44"  />
<circle cx="116.46" cy="52.86" r="2.50" fill="#b44" opacity="0.7"/>
<polyline points="116.46,52.86 126.88,60.86" stroke-width="2" stroke="#b44"  />
<circle cx="126.88" cy="60.86" r="2.50" fill="#b44" opacity="0.7"/>
<polyline points="158.12,84.57 158.12,62.86" stroke="#bbb"  />
<polyline points="155.62,84.57 160.62,84.57" stroke="#bbb"  />
<polyline points="155.62,62.86 160.62,62.86" stroke="#bbb"  />
<polyline points="168.54,75.43 168.54,56.57" stroke="#bbb"  />
<polyline points="166.04,75.43 171.04,75.43" stroke="#bbb"  />
<polyline points="166.04,56.57 171.04,56.57" stroke="#bbb"  />
<polyline points="178.96,80 178.96,16" stroke="#bbb"  />
<polyline points="176.46,80 181.46,80" stroke="#bbb"  />
<polyline points="176.46,16 181.46,16" stroke="#bbb"  />
<polyline points="189.38,64 189.38,29.14" stroke="#bbb"  />
<polyline points="186.88,64 191.88,64" stroke="#bbb"  />
<polyline points="186.88,29.14 191.88,29.14" stroke="#bbb"  />
<circle cx="158.12" cy="73.71" r="2.50" fill="#b44" opacity="0.7"/>
<polyline points="158.12,73.71 168.54,66" stroke-width="2" stroke="#b44"  />
<circle cx="168.54" cy="66" r="2.50" fill="#b44" opacity="0.7"/>
<polyline points="168.54,66 178.96,48" stroke-width="2" stroke="#b44"  />
<circle cx="178.96" cy="48" r="2.50" fill="#b44" opacity="0.7"/>
<polyline points="178.96,48 189.38,46.57" stroke-width="2" stroke="#b44"  />
<circle cx="189.38" cy="46.57" r="2.50" fill="#b44" opacity="0.7"/>
<polyline points="220.62,96.29 220.62,79.14" stroke="#bbb"  />
<polyline points="218.12,96.29 223.12,96.29" stroke="#bbb"  />
<polyline points="218.12,79.14 223.12,79.14" stroke="#bbb"  />
<polyline points="231.04,97.71 231.04,64.57" stroke="#bbb"  />
<polyline points="228.54,97.71 233.54,97.71" stroke="#bbb"  />
<polyline points="228.54,64.57 233.54,64.57" stroke="#bbb"  />
<polyline points="241.46,81.71 241.46,59.43" stroke="#bbb"  />
<polyline points="238.96,81.71 243.96,81.71" stroke="#bbb"  />
<polyline points="238.96,59.43 243.96,59.43" stroke="#bbb"  />
<polyline points="251.88,75.71 251.88,36.86" stroke="#bbb"  />
<polyline points="249.38,75.71 254.38,75.71" stroke="#bbb"  />
<polyline points="249.38,36.86 254.38,36.86" stroke="#bbb"  />
<circle cx="220.62" cy="87.71" r="2.50" fill="#b44" opacity="0.7"/>
<polyline points="220.62,87.71 231.04,81.14" stroke-width="2" stroke="#b44"  />
<circle cx="231.04" cy="81.14" r="2.50" fill="#b44" opacity="0.7"/>
<polyline points="231.04,81.14 241.46,70.57" stroke-width="2" stroke="#b44"  />
<circle cx="241.46" cy="70.57" r="2.50" fill="#b44" opacity="0.7"/>
<polyline points="241.46,70.57 251.88,56.29" stroke-width="2" stroke="#b44"  />
<circle cx="251.88" cy="56.29" r="2.50" fill="#b44" opacity="0.7"/>
<polyline points="283.12,81.14 283.12,51.43" stroke="#bbb"  />
<polyline points="280.62,81.14 285.62,81.14" stroke="#bbb"  />
<polyline points="280.62,51.43 285.62,51.43" stroke="#bbb"  />
<polyline points="303.96,61.43 303.96,19.71" stroke="#bbb"  />
<polyline points="301.46,61.43 306.46,61.43" stroke="#bbb"  />
<polyline points="301.46,19.71 306.46,19.71" stroke="#bbb"  />
<polyline points="314.38,58.29 314.38,12" stroke="#bbb"  />
<polyline points="311.88,58.29 316.88,58.29" stroke="#bbb"  />
<polyline points="311.88,12 316.88,12" stroke="#bbb"  />
<circle cx="283.12" cy="66.29" r="2.50" fill="#b44" opacity="0.7"/>
<polyline points="283.12,66.29 303.96,40.57" stroke-width="2" stroke="#b44"  />
<circle cx="303.96" cy="40.57" r="2.50" fill="#b44" opacity="0.7"/>
<polyline points="303.96,40.57 314.38,35.14" stroke-width="2" stroke="#b44"  />
<circle cx="314.38" cy="35.14" r="2.50" fill="#b44" opacity="0.7"/>
<polyline points="345.62,89.14 345.62,50.29" stroke="#bbb"  />
<polyline points="343.12,89.14 348.12,89.14" stroke="#bbb"  />
<polyline points="343.12,50.29 348.12,50.29" stroke="#bbb"  />
<polyline points="356.04,78 356.04,52.29" stroke="#bbb"  />
<polyline points="353.54,78 358.54,78" stroke="#bbb"  />
<polyline points="353.54,52.29 358.54,52.29" stroke="#bbb"  />
<polyline points="366.46,77.43 366.46,32.86" stroke="#bbb"  />
<polyline points="363.96,77.43 368.96,77.43" stroke="#bbb"  />
<polyline points="363.96,32.86 368.96,32.86" stroke="#bbb"  />
<polyline points="376.88,67.14 376.88,36.86" stroke="#bbb"  />
<polyline points="374.38,67.14 379.38,67.14" stroke="#bbb"  />
<polyline points="374.38,36.86 379.38,36.86" stroke="#bbb"  />
<circle cx="345.62" cy="69.71" r="2.50" fill="#b44" opacity="0.7"/>
<polyline points="345.62,69.71 356.04,65.14" stroke-width="2" stroke="#b44"  />
<circle cx="356.04" cy="65.14" r="2.50" fill="#b44" opacity="0.7"/>
<polyline points="356.04,65.14 366.46,55.14" stroke-width="2" stroke="#b44"  />
<circle cx="366.46" cy="55.14" r="2.50" fill="#b44" opacity="0.7"/>
<polyline points="366.46,55.14 376.88,52" stroke-width="2" stroke="#b44"  />
<circle cx="376.88" cy="52" r="2.50" fill="#b44" opacity="0.7"/>
<polyline points="408.12,86.57 408.12,74" stroke="#bbb"  />
<polyline points="405.62,86.57 410.62,86.57" stroke="#bbb"  />
<polyline points="405.62,74 410.62,74" stroke="#bbb"  />
<polyline points="418.54,76.57 418.54,62.86" stroke="#bbb"  />
<polyline points="416.04,76.57 421.04,76.57" stroke="#bbb"  />
<polyline points="416.04,62.86 421.04,62.86" stroke="#bbb"  />
<polyline points="428.96,74.57 428.96,50.57" stroke="#bbb"  />
<polyline points="426.46,74.57 431.46,74.57" stroke="#bbb"  />
<polyline points="426.46,50.57 431.46,50.57" stroke="#bbb"  />
<polyline points="439.38,69.71 439.38,28.57" stroke="#bbb"  />
<polyline points="436.88,69.71 441.88,69.71" stroke="#bbb"  />
<polyline points="436.88,28.57 441.88,28.57" stroke="#bbb"  />
<circle cx="408.12" cy="80.29" r="2.50" fill="#b44" opacity="0.7"/>
<polyline points="408.12,80.29 418.54,69.71" stroke-width="2" stroke="#b44"  />
<circle cx="418.54" cy="69.71" r="2.50" fill="#b44" opacity="0.7"/>
<polyline points="418.54,69.71 428.96,62.57" stroke-width="2" stroke="#b44"  />
<circle cx="428.96" cy="62.57" r="2.50" fill="#b44" opacity="0.7"/>
<polyline points="428.96,62.57 439.38,49.14" stroke-width="2" stroke="#b44"  />
<circle cx="439.38" cy="49.14" r="2.50" fill="#b44" opacity="0.7"/>
<polyline points="470.62,92.29 470.62,72.29" stroke="#bbb"  />
<polyline points="468.12,92.29 473.12,92.29" stroke="#bbb"  />
<polyline points="468.12,72.29 473.12,72.29" stroke="#bbb"  />
<polyline points="481.04,81.43 481.04,45.43" stroke="#bbb"  />
<polyline points="478.54,81.43 483.54,81.43" stroke="#bbb"  />
<polyline points="478.54,45.43 483.54,45.43" stroke="#bbb"  />
<polyline points="501.88,60.29 501.88,27.14" stroke="#bbb"  />
<polyline points="499.38,60.29 504.38,60.29" stroke="#bbb"  />
<polyline points="499.38,27.14 504.38,27.14" stroke="#bbb"  />
<circle cx="470.62" cy="82.29" r="2.50" fill="#b44" opacity="0.7"/>
<polyline points="470.62,82.29 481.04,63.43" stroke-width="2" stroke="#b44"  />
<circle cx="481.04" cy="63.43" r="2.50" fill="#b44" opacity="0.7"/>
<polyline points="481.04,63.43 501.88,43.71" stroke-width="2" stroke="#b44"  />
<circle cx="501.88" cy="43.71" r="2.50" fill="#b44" opacity="0.7"/>
<polyline points="533.12,87.71 533.12,70.57" stroke="#bbb"  />
<polyline points="530.62,87.71 535.62,87.71" stroke="#bbb"  />
<polyline points="530.62,70.57 535.62,70.57" stroke="#bbb"  />
<polyline points="543.54,94.86 543.54,67.43" stroke="#bbb"  />
<polyline points="541.04,94.86 546.04,94.86" stroke="#bbb"  />
<polyline points="541.04,67.43 546.04,67.43" stroke="#bbb"  />
<polyline points="553.96,87.43 553.96,59.43" stroke="#bbb"  />
<polyline points="551.46,87.43 556.46,87.43" stroke="#bbb"  />
<polyline points="551.46,59.43 556.46,59.43" stroke="#bbb"  />
<polyline points="564.38,72.86 564.38,51.14" stroke="#bbb"  />
<polyline points="561.88,72.86 566.88,72.86" stroke="#bbb"  />
<polyline points="561.88,51.14 566.88,51.14" stroke="#bbb"  />
<circle cx="533.12" cy="79.14" r="2.50" fill="#b44" opacity="0.7"/>
<polyline points="533.12,79.14 543.54,81.14" stroke-width="2" stroke="#b44"  />
<circle cx="543.54" cy="81.14" r="2.50" fill="#b44" opacity="0.7"/>
<polyline points="543.54,81.14 553.96,73.43" stroke-width="2" stroke="#b44"  />
<circle cx="553.96" cy="73.43" r="2.50" fill="#b44" opacity="0.7"/>
<polyline points="553.96,73.43 564.38,62" stroke-width="2" stroke="#b44"  />
<circle cx="564.38" cy="62" r="2.50" fill="#b44" opacity="0.7"/>
</svg>
