<?xml version="1.0" encoding="utf-8"?>
<!DOCTYPE svg PUBLIC "-//W3C//DTD SVG 1.1//EN" "http://www.w3.org/Graphics/SVG/1.1/DTD/svg11.dtd">
<svg width="500" height="350" xmlns="http://www.w3.org/2000/svg" xmlns:xlink="http://www.w3.org/1999/xlink">
<!-- SVG graphic by minplot -->
<polyline points="80,270 450,270" stroke="#aaa"  />
<polyline points="450,270 80,270" stroke="#aaa"  />
<text x="80" y="283.89" style="font-family: sans-serif; font-weight: bold;"  text-anchor="middle" >0</text>
<text x="147.27" y="283.89" style="font-family: sans-serif; font-weight: bold;"  text-anchor="middle" >100</text>
<text x="214.55" y="283.89" style="font-family: sans-serif; font-weight: bold;"  text-anchor="middle" >200</text>
<text x="281.82" y="283.89" style="font-family: sans-serif; font-weight: bold;"  text-anchor="middle" >300</text>
<text x="349.09" y="283.89" style="font-family: sans-serif; font-weight: bold;"  text-anchor="middle" >400</text>
<text x="416.36" y="283.89" style="font-family: sans-serif; font-weight: bold;"  text-anchor="middle" >500</text>
<polyline points="60,270 60,30" stroke="#aaa"  />
<polyline points="60,30 60,270" stroke="#aaa"  />
<polyline points="60,270 450,270" stroke="#aaa"  />
<polyline points="60,230 450,230" stroke="#aaa"  />
<polyline points="60,190 450,190" stroke="#aaa"  />
<polyline points="60,150 450,150" stroke="#aaa"  />
<polyline points="60,110 450,110" stroke="#aaa"  />
<polyline points="60,70 450,70" stroke="#aaa"  />
<polyline points="60,30 450,30" stroke="#aaa"  />
<text x="58" y="274.17" style="font-family: sans-serif; font-weight: bold;"  text-anchor="end" >0</text>
<text x="58" y="234.17" style="font-family: sans-serif; font-weight: bold;"  text-anchor="end" >5</text>
<text x="58" y="194.17" style="font-family: sans-serif; font-weight: bold;"  text-anchor="end" >10</text>
<text x="58" y="154.17" style="font-family: sans-serif; font-weight: bold;"  text-anchor="end" >15</text>
<text x="58" y="114.17" style="font-family: sans-serif; font-weight: bold;"  text-anchor="end" >20</text>
<text x="58" y="74.17" style="font-family: sans-serif; font-weight: bold;"  text-anchor="end" >25</text>
<text x="58" y="34.17" style="font-family: sans-serif; font-weight: bold;"  text-anchor="end" >30</text>
<rect x="80.0" y="30" width="370" height="240" fill="none" />
<text x="265" y="330" style="font-family: sans-serif; font-weight: bold;"  text-anchor="middle" >glucose  [mg/dL]</text>
<text x="20" y="150" style="font-family: sans-serif; font-weight: bold;"  text-anchor="middle" transform="rotate(-90 20,150)" >Number of instances</text>
<rect x="81.7045454545" y="270" width="5" height="0" fill="pink" />
<rect x="90.1136363636" y="270" width="5" height="0" fill="pink" />
<rect x="98.5227272727" y="254" width="5" height="16" fill="pink" />
<rect x="106.931818182" y="238" width="5" height="32" fill="pink" />
<rect x="115.340909091" y="246" width="5" height="24" fill="pink" />
<rect x="123.75" y="214" width="5" height="56" fill="pink" />
<rect x="132.159090909" y="206" width="5" height="64" fill="pink" />
<rect x="140.568181818" y="134" width="5" height="136" fill="pink" />
<rect x="148.977272727" y="70" width="5" height="200" fill="pink" />
<rect x="157.386363636" y="70" width="5" height="200" fill="pink" />
<rect x="165.795454545" y="38" width="5" height="232" fill="pink" />
<rect x="174.204545455" y="78" width="5" height="192" fill="pink" />
<rect x="182.613636364" y="118" width="5" height="152" fill="pink" />
<rect x="191.022727273" y="174" width="5" height="96" fill="pink" />
<rect x="199.431818182" y="190" width="5" height="80" fill="pink" />
<rect x="207.840909091" y="230" width="5" height="40" fill="pink" />
<rect x="216.25" y="262" width="5" height="8" fill="pink" />
<rect x="224.659090909" y="270" width="5" height="0" fill="pink" />
<rect x="233.068181818" y="262" width="5" height="8" fill="pink" />
<rect x="241.477272727" y="270" width="5" height="0" fill="pink" />
<rect x="249.886363636" y="270" width="5" height="0" fill="pink" />
<rect x="258.295454545" y="262" width="5" height="8" fill="pink" />
<rect x="266.704545455" y="270" width="5" height="0" fill="pink" />
<rect x="275.113636364" y="262" width="5" height="8" fill="pink" />
<rect x="283.522727273" y="262" width="5" height="8" fill="pink" />
<rect x="291.931818182" y="270" width="5" height="0" fill="pink" />
<rect x="300.340909091" y="270" width="5" height="0" fill="pink" />
<rect x="308.75" y="270" width="5" height="0" fill="pink" />
<rect x="317.159090909" y="270" width="5" height="0" fill="pink" />
<rect x="325.568181818" y="270" width="5" height="0" fill="pink" />
<rect x="333.977272727" y="270" width="5" height="0" fill="pink" />
<rect x="342.386363636" y="270" width="5" height="0" fill="pink" />
<rect x="350.795454545" y="270" width="5" height="0" fill="pink" />
<rect x="359.204545455" y="270" width="5" height="0" fill="pink" />
<rect x="367.613636364" y="270" width="5" height="0" fill="pink" />
<rect x="376.022727273" y="270" width="5" height="0" fill="pink" />
<rect x="384.431818182" y="270" width="5" height="0" fill="pink" />
<rect x="392.840909091" y="270" width="5" height="0" fill="pink" />
<rect x="401.25" y="270" width="5" height="0" fill="pink" />
<rect x="409.659090909" y="270" width="5" height="0" fill="pink" />
<rect x="418.068181818" y="270" width="5" height="0" fill="pink" />
<rect x="426.477272727" y="270" width="5" height="0" fill="pink" />
<rect x="434.886363636" y="262" width="5" height="8" fill="pink" />
<rect x="443.295454545" y="270" width="5" height="0" fill="pink" />
<text x="320" y="50" style="font-family: sans-serif; font-weight: bold;" >bin size = 12.5</text>
</svg>
